<svg width="629" height="651" viewBox="0 0 629 651" fill="none" xmlns="http://www.w3.org/2000/svg">
<circle cx="328" cy="361" r="288.5" stroke="#DDDDED" stroke-width="3" stroke-dasharray="8 8"/>
<circle cx="328" cy="361" r="218.5" stroke="#DDDDED" stroke-width="3" stroke-dasharray="8 8"/>
<circle cx="519" cy="110" r="110" fill="#3ADAD9"/>
<circle cx="545" cy="307" r="15" fill="#25D68B"/>
<circle cx="459" cy="133" r="15" fill="white" fill-opacity="0.29"/>
<circle cx="569" cy="77" r="10" fill="white" fill-opacity="0.29"/>
<circle cx="479" cy="536" r="100" fill="#FD9B79"/>
<circle cx="418" cy="510" r="9" fill="#F49159"/>
<circle cx="218" cy="44" r="12" fill="#EC844A"/>
<circle cx="522" cy="572" r="26" fill="#F49159"/>
<circle cx="90" cy="243" r="90" fill="#F3C758"/>
<circle cx="126" cy="547" r="25" fill="#4A81EC"/>
<circle cx="114" cy="210" r="21" fill="white" fill-opacity="0.25"/>
<circle cx="33.5" cy="260.5" r="7.5" fill="white" fill-opacity="0.25"/>
<path d="M434.893 526.281C434.893 519.913 440.055 514.75 446.423 514.75H517.9C524.268 514.75 529.43 519.913 529.43 526.281V569.556C529.43 575.924 524.268 581.086 517.9 581.086H446.423C440.055 581.086 434.893 575.924 434.893 569.556V526.281Z" fill="black"/>
<path d="M430.492 518.036C430.492 513.79 433.933 510.349 438.179 510.349H517.342C521.588 510.349 525.029 513.79 525.029 518.036V568.998C525.029 573.244 521.588 576.685 517.342 576.685H438.179C433.933 576.685 430.492 573.244 430.492 568.998V518.036Z" fill="white"/>
<path fill-rule="evenodd" clip-rule="evenodd" d="M438.178 508.427H517.342C522.649 508.427 526.951 512.729 526.951 518.036V568.998C526.951 574.305 522.649 578.607 517.342 578.607H438.178C432.872 578.607 428.57 574.305 428.57 568.998V518.036C428.57 512.729 432.872 508.427 438.178 508.427ZM438.178 510.349C433.933 510.349 430.492 513.79 430.492 518.036V568.998C430.492 573.244 433.933 576.685 438.178 576.685H517.342C521.587 576.685 525.029 573.244 525.029 568.998V518.036C525.029 513.79 521.587 510.349 517.342 510.349H438.178Z" fill="black"/>
<path d="M467.146 515.851C467.146 514.129 468.542 512.733 470.264 512.733H485.256C486.978 512.733 488.374 514.129 488.374 515.851C488.374 517.572 486.978 518.968 485.256 518.968H470.264C468.542 518.968 467.146 517.572 467.146 515.851Z" fill="black"/>
<path fill-rule="evenodd" clip-rule="evenodd" d="M444.788 527.5H466.902C470.086 527.5 472.667 530.081 472.667 533.265V562.689C472.667 565.873 470.086 568.454 466.902 568.454H444.788C441.604 568.454 439.023 565.873 439.023 562.689V533.265C439.023 530.081 441.604 527.5 444.788 527.5ZM444.788 529.421C442.665 529.421 440.945 531.142 440.945 533.265V562.689C440.945 564.812 442.665 566.533 444.788 566.533H466.902C469.025 566.533 470.745 564.812 470.745 562.689V533.265C470.745 531.142 469.025 529.421 466.902 529.421H444.788Z" fill="black"/>
<path fill-rule="evenodd" clip-rule="evenodd" d="M448.851 553.897C449.375 555.117 450.487 556.015 451.962 556.63C453.556 557.294 455.454 557.571 457.104 557.571C458.753 557.571 460.651 557.294 462.245 556.63C463.72 556.015 464.833 555.117 465.356 553.897C464.819 552.723 463.509 551.806 461.835 551.162C460.062 550.48 458.149 550.211 457.104 550.211C456.059 550.211 454.145 550.48 452.373 551.162C450.699 551.806 449.388 552.723 448.851 553.897ZM451.683 549.369C453.68 548.6 455.828 548.289 457.104 548.289C458.379 548.289 460.527 548.6 462.525 549.369C464.482 550.121 466.576 551.424 467.297 553.587C467.363 553.784 467.363 553.998 467.297 554.195C466.597 556.296 464.868 557.619 462.984 558.404C461.098 559.19 458.935 559.493 457.104 559.493C455.273 559.493 453.11 559.19 451.223 558.404C449.339 557.619 447.611 556.296 446.91 554.195C446.844 553.998 446.844 553.784 446.91 553.587C447.631 551.424 449.725 550.121 451.683 549.369Z" fill="black"/>
<path fill-rule="evenodd" clip-rule="evenodd" d="M453.508 536.25C453.119 535.656 452.432 535.324 451.721 535.392C450.984 535.461 450.353 535.948 450.098 536.643C449.476 538.336 449.627 539.938 450.64 541.151C450.877 541.435 451.141 541.673 451.419 541.872C451.299 542.331 451.235 542.812 451.235 543.307C451.235 546.435 453.771 548.971 456.899 548.971C459.99 548.971 462.502 546.496 462.562 543.419C462.592 543.124 462.633 542.528 462.566 542.021C462.315 539.792 461.24 538.24 459.612 537.39C458.136 536.618 456.437 536.549 455.097 536.624C454.421 536.661 453.994 536.526 453.758 536.411C453.599 536.333 453.526 536.265 453.508 536.25ZM460.659 542.256C460.292 538.909 457.679 538.405 455.203 538.543C454.571 538.578 454.035 538.511 453.588 538.389C452.634 538.129 452.089 537.617 451.902 537.305C451.471 538.478 451.633 539.3 452.07 539.864C452.127 539.936 452.187 540.005 452.252 540.069C452.725 540.537 453.406 540.789 454.034 540.9C453.613 541.401 453.321 542.013 453.208 542.686C453.175 542.888 453.157 543.096 453.157 543.307C453.157 545.374 454.833 547.049 456.899 547.049C458.966 547.049 460.642 545.374 460.642 543.307C460.667 543.092 460.705 542.581 460.659 542.256Z" fill="black"/>
<path fill-rule="evenodd" clip-rule="evenodd" d="M457.956 553.351C457.956 552.821 458.386 552.391 458.917 552.391H461.668C462.198 552.391 462.629 552.821 462.629 553.351C462.629 553.882 462.198 554.312 461.668 554.312H458.917C458.386 554.312 457.956 553.882 457.956 553.351Z" fill="black"/>
<path fill-rule="evenodd" clip-rule="evenodd" d="M478.267 557.195C478.267 556.664 478.697 556.234 479.228 556.234H498.849C499.379 556.234 499.81 556.664 499.81 557.195C499.81 557.726 499.379 558.156 498.849 558.156H479.228C478.697 558.156 478.267 557.726 478.267 557.195Z" fill="black"/>
<path fill-rule="evenodd" clip-rule="evenodd" d="M478.267 551.337C478.267 550.806 478.697 550.376 479.228 550.376H515.172C515.703 550.376 516.133 550.806 516.133 551.337C516.133 551.867 515.703 552.298 515.172 552.298H479.228C478.697 552.298 478.267 551.867 478.267 551.337Z" fill="black"/>
<path fill-rule="evenodd" clip-rule="evenodd" d="M478.267 545.468C478.267 544.937 478.697 544.507 479.228 544.507H515.172C515.703 544.507 516.133 544.937 516.133 545.468C516.133 545.999 515.703 546.429 515.172 546.429H479.228C478.697 546.429 478.267 545.999 478.267 545.468Z" fill="black"/>
<path fill-rule="evenodd" clip-rule="evenodd" d="M478.267 539.6C478.267 539.069 478.697 538.639 479.227 538.639H515.172C515.703 538.639 516.133 539.069 516.133 539.6C516.133 540.13 515.703 540.561 515.172 540.561H479.227C478.697 540.561 478.267 540.13 478.267 539.6Z" fill="black"/>
<path d="M478.448 530.751C478.448 529.612 479.372 528.688 480.511 528.688H514.255C515.394 528.688 516.318 529.612 516.318 530.751C516.318 531.891 515.394 532.814 514.255 532.814H480.511C479.372 532.814 478.448 531.891 478.448 530.751Z" fill="black"/>
<path d="M472.58 494.757C472.58 493.696 473.44 492.835 474.501 492.835H481.019C482.081 492.835 482.941 493.696 482.941 494.757V515.576H472.58V494.757Z" fill="white"/>
<path fill-rule="evenodd" clip-rule="evenodd" d="M484.863 517.497H470.658V494.757C470.658 492.634 472.378 490.914 474.501 490.914H481.019C483.142 490.914 484.863 492.634 484.863 494.757V517.497ZM474.501 492.835C473.44 492.835 472.579 493.696 472.579 494.757V515.576H482.941V494.757C482.941 493.696 482.081 492.835 481.019 492.835H474.501Z" fill="black"/>
<path d="M480.419 497.97C480.419 499.439 479.229 500.629 477.76 500.629C476.292 500.629 475.101 499.439 475.101 497.97C475.101 496.502 476.292 495.311 477.76 495.311C479.229 495.311 480.419 496.502 480.419 497.97Z" fill="black"/>
</svg>
