<svg width="619" height="397" viewBox="0 0 619 397" fill="none" xmlns="http://www.w3.org/2000/svg">
<g filter="url(#filter0_d_154_2913)">
<path d="M122 65C122 55.0589 130.059 47 140 47H479.068C489.009 47 497.068 55.0589 497.068 65V168.677C497.068 178.618 489.009 186.677 479.068 186.677H160.507C156.464 186.677 152.561 188.156 149.533 190.834L143.358 196.298C135.067 203.633 122 197.747 122 186.677V186.677V65Z" fill="white"/>
</g>
<rect x="378.489" y="60.0859" width="82.0461" height="32.5913" rx="7.03252" fill="#3ADAD9"/>
<path d="M399.198 81.0379C400.185 81.0379 400.885 80.8912 401.298 80.5979C401.712 80.2912 401.918 79.8712 401.918 79.3379C401.918 78.9912 401.798 78.5445 401.558 77.9979C401.318 77.4512 400.998 76.8445 400.598 76.1779C400.212 75.4979 399.778 74.8045 399.298 74.0979L400.678 73.1979C401.452 74.3845 402.078 75.4712 402.558 76.4579C403.052 77.4312 403.418 78.3112 403.658 79.0979C403.845 79.6845 404.052 80.1179 404.278 80.3979C404.518 80.6779 404.765 80.8579 405.018 80.9379C405.272 81.0045 405.505 81.0379 405.718 81.0379C405.998 81.0379 406.205 81.1179 406.338 81.2779C406.472 81.4245 406.538 81.6045 406.538 81.8179C406.538 82.0312 406.445 82.2312 406.258 82.4179C406.072 82.5912 405.832 82.6779 405.538 82.6779C405.018 82.6779 404.518 82.5645 404.038 82.3379C403.558 82.1112 403.172 81.7245 402.878 81.1779C402.612 81.6179 402.185 81.9845 401.598 82.2779C401.025 82.5579 400.225 82.6979 399.198 82.6979C398.465 82.6979 397.785 82.6112 397.158 82.4379C396.532 82.2512 396.012 81.9979 395.598 81.6779L396.398 80.2979C396.665 80.4845 397.038 80.6579 397.518 80.8179C397.998 80.9645 398.558 81.0379 399.198 81.0379ZM405.543 82.6779L405.743 81.0379C406.516 81.0379 407.123 81.0112 407.563 80.9579C408.016 80.8912 408.336 80.7379 408.523 80.4979C408.71 80.2579 408.803 79.8645 408.803 79.3179C408.803 78.8245 408.683 78.1912 408.443 77.4179C408.216 76.6445 407.956 75.8779 407.663 75.1179L409.283 74.5179C409.456 74.9579 409.616 75.4512 409.763 75.9979C409.923 76.5312 410.056 77.0645 410.163 77.5979C410.27 78.1312 410.323 78.5979 410.323 78.9979C410.323 80.3445 409.95 81.2979 409.203 81.8579C408.456 82.4045 407.236 82.6779 405.543 82.6779ZM409.243 86.4579C408.963 86.4579 408.723 86.3579 408.523 86.1579C408.336 85.9712 408.243 85.7445 408.243 85.4779C408.243 85.2112 408.336 84.9779 408.523 84.7779C408.723 84.5779 408.963 84.4779 409.243 84.4779C409.51 84.4779 409.736 84.5779 409.923 84.7779C410.123 84.9779 410.223 85.2112 410.223 85.4779C410.223 85.7445 410.123 85.9712 409.923 86.1579C409.736 86.3579 409.51 86.4579 409.243 86.4579ZM406.503 86.4579C406.223 86.4579 405.983 86.3579 405.783 86.1579C405.596 85.9712 405.503 85.7445 405.503 85.4779C405.503 85.2112 405.596 84.9779 405.783 84.7779C405.983 84.5779 406.223 84.4779 406.503 84.4779C406.77 84.4779 406.996 84.5779 407.183 84.7779C407.383 84.9779 407.483 85.2112 407.483 85.4779C407.483 85.7445 407.383 85.9712 407.183 86.1579C406.996 86.3579 406.77 86.4579 406.503 86.4579ZM415.82 81.0379C416.806 81.0379 417.506 80.8912 417.92 80.5979C418.333 80.2912 418.54 79.8712 418.54 79.3379C418.54 78.9912 418.42 78.5445 418.18 77.9979C417.94 77.4512 417.62 76.8445 417.22 76.1779C416.833 75.4979 416.4 74.8045 415.92 74.0979L417.3 73.1979C418.073 74.3845 418.7 75.4712 419.18 76.4579C419.673 77.4312 420.04 78.3112 420.28 79.0979C420.466 79.6845 420.673 80.1179 420.9 80.3979C421.14 80.6779 421.386 80.8579 421.64 80.9379C421.893 81.0045 422.126 81.0379 422.34 81.0379C422.62 81.0379 422.826 81.1179 422.96 81.2779C423.093 81.4245 423.16 81.6045 423.16 81.8179C423.16 82.0312 423.066 82.2312 422.88 82.4179C422.693 82.5912 422.453 82.6779 422.16 82.6779C421.64 82.6779 421.14 82.5645 420.66 82.3379C420.18 82.1112 419.793 81.7245 419.5 81.1779C419.233 81.6179 418.806 81.9845 418.22 82.2779C417.646 82.5579 416.846 82.6979 415.82 82.6979C415.086 82.6979 414.406 82.6112 413.78 82.4379C413.153 82.2512 412.633 81.9979 412.22 81.6779L413.02 80.2979C413.286 80.4845 413.66 80.6579 414.14 80.8179C414.62 80.9645 415.18 81.0379 415.82 81.0379ZM422.164 82.6779L422.344 81.0379C423.717 81.0379 425.051 80.8379 426.344 80.4379C427.637 80.0245 428.817 79.4445 429.884 78.6979C429.364 78.2445 428.724 77.8779 427.964 77.5979C427.217 77.3179 426.391 77.1779 425.484 77.1779C425.151 77.1779 424.857 77.1979 424.604 77.2379C424.351 77.2645 424.044 77.3179 423.684 77.3979L423.364 75.8779C424.111 75.6512 424.817 75.5379 425.484 75.5379C426.177 75.5379 426.804 75.6245 427.364 75.7979C427.924 75.9579 428.431 76.1579 428.884 76.3979C429.351 76.6379 429.784 76.8779 430.184 77.1179C430.597 77.3579 430.997 77.5645 431.384 77.7379C431.771 77.8979 432.171 77.9779 432.584 77.9779H433.004L433.144 79.4179C432.464 79.4179 431.844 79.5312 431.284 79.7579C430.724 79.9712 430.157 80.2445 429.584 80.5779C429.024 80.8979 428.404 81.2179 427.724 81.5379C427.057 81.8579 426.277 82.1312 425.384 82.3579C424.491 82.5712 423.417 82.6779 422.164 82.6779ZM427.744 86.2979C427.464 86.2979 427.224 86.1979 427.024 85.9979C426.837 85.8112 426.744 85.5845 426.744 85.3179C426.744 85.0512 426.837 84.8179 427.024 84.6179C427.224 84.4179 427.464 84.3179 427.744 84.3179C428.011 84.3179 428.237 84.4179 428.424 84.6179C428.624 84.8179 428.724 85.0512 428.724 85.3179C428.724 85.5845 428.624 85.8112 428.424 85.9979C428.237 86.1979 428.011 86.2979 427.744 86.2979Z" fill="white"/>
<path d="M142.484 101.065C141.834 101.065 141.279 100.978 140.82 100.805C140.361 100.632 140.014 100.337 139.78 99.921C139.234 100.025 138.71 100.06 138.207 100.025C137.704 99.9817 137.258 99.8733 136.868 99.7C136.478 99.518 136.17 99.2623 135.945 98.933C135.72 98.595 135.607 98.179 135.607 97.685C135.607 97.1043 135.763 96.5973 136.075 96.164C136.396 95.722 136.829 95.3493 137.375 95.046C137.93 94.7427 138.554 94.5087 139.247 94.344L139.208 93.356H141.041L141.262 97.958C141.288 98.4953 141.405 98.8463 141.613 99.011C141.83 99.167 142.163 99.245 142.614 99.245C142.943 99.245 143.177 99.3317 143.316 99.505C143.455 99.6697 143.524 99.8777 143.524 100.129C143.524 100.398 143.433 100.623 143.251 100.805C143.078 100.978 142.822 101.065 142.484 101.065ZM137.427 97.516C137.427 97.7153 137.522 97.8713 137.713 97.984C137.912 98.0967 138.164 98.1703 138.467 98.205C138.77 98.231 139.087 98.2137 139.416 98.153L139.338 96.151C138.749 96.2463 138.281 96.4197 137.934 96.671C137.596 96.9223 137.427 97.204 137.427 97.516ZM137.895 92.004C137.644 92.004 137.427 91.9173 137.245 91.744C137.072 91.562 136.985 91.3497 136.985 91.107C136.985 90.8557 137.072 90.639 137.245 90.457C137.427 90.275 137.644 90.184 137.895 90.184C138.138 90.184 138.346 90.275 138.519 90.457C138.692 90.639 138.779 90.8557 138.779 91.107C138.779 91.3497 138.692 91.562 138.519 91.744C138.346 91.9173 138.138 92.004 137.895 92.004ZM140.144 92.017C139.893 92.017 139.676 91.9303 139.494 91.757C139.321 91.5837 139.234 91.3713 139.234 91.12C139.234 90.8687 139.321 90.652 139.494 90.47C139.676 90.288 139.893 90.197 140.144 90.197C140.387 90.197 140.595 90.288 140.768 90.47C140.941 90.652 141.028 90.8687 141.028 91.12C141.028 91.3713 140.941 91.5837 140.768 91.757C140.595 91.9303 140.387 92.017 140.144 92.017ZM142.479 101.065L142.609 99.245C143.545 99.245 144.455 99.141 145.339 98.933C146.223 98.725 147.008 98.3913 147.692 97.932C147.294 97.698 146.852 97.516 146.366 97.386C145.89 97.256 145.365 97.191 144.793 97.191C144.577 97.191 144.351 97.204 144.117 97.23C143.892 97.2473 143.662 97.282 143.428 97.334L143.168 95.553C143.42 95.4923 143.684 95.4447 143.961 95.41C144.239 95.3753 144.49 95.358 144.715 95.358C145.305 95.358 145.833 95.436 146.301 95.592C146.769 95.748 147.194 95.93 147.575 96.138C147.965 96.346 148.325 96.528 148.654 96.684C148.992 96.84 149.322 96.918 149.642 96.918H150.123L150.331 98.647C150.141 98.6557 149.959 98.6817 149.785 98.725C149.612 98.7683 149.443 98.8203 149.278 98.881C149.495 99.0197 149.755 99.115 150.058 99.167C150.362 99.219 150.713 99.245 151.111 99.245C151.441 99.245 151.675 99.3317 151.813 99.505C151.952 99.6697 152.021 99.8777 152.021 100.129C152.021 100.398 151.93 100.623 151.748 100.805C151.575 100.978 151.319 101.065 150.981 101.065C150.288 101.065 149.677 100.965 149.148 100.766C148.62 100.567 148.195 100.177 147.874 99.596C147.476 99.8213 147.034 100.047 146.548 100.272C146.072 100.497 145.504 100.688 144.845 100.844C144.187 100.991 143.398 101.065 142.479 101.065ZM146.158 103.99C145.907 103.99 145.69 103.903 145.508 103.73C145.335 103.557 145.248 103.344 145.248 103.093C145.248 102.842 145.335 102.621 145.508 102.43C145.69 102.248 145.907 102.157 146.158 102.157C146.401 102.157 146.613 102.248 146.795 102.43C146.977 102.621 147.068 102.842 147.068 103.093C147.068 103.344 146.977 103.557 146.795 103.73C146.613 103.903 146.401 103.99 146.158 103.99ZM150.985 101.065L151.115 99.245C151.635 99.245 152.034 99.219 152.311 99.167C152.589 99.115 152.779 99.0197 152.883 98.881C152.996 98.7337 153.052 98.5257 153.052 98.257C153.052 98.0143 153.018 97.724 152.948 97.386C152.888 97.048 152.805 96.7013 152.701 96.346C152.597 95.982 152.493 95.644 152.389 95.332L154.183 94.838C154.287 95.1327 154.391 95.475 154.495 95.865C154.608 96.255 154.699 96.658 154.768 97.074C154.838 97.49 154.872 97.8843 154.872 98.257C154.872 98.8463 154.777 99.3273 154.586 99.7C154.396 100.064 154.127 100.346 153.78 100.545C153.442 100.744 153.035 100.883 152.558 100.961C152.082 101.03 151.557 101.065 150.985 101.065ZM154.196 104.081C153.945 104.081 153.728 103.994 153.546 103.821C153.373 103.648 153.286 103.435 153.286 103.184C153.286 102.933 153.373 102.716 153.546 102.534C153.728 102.352 153.945 102.261 154.196 102.261C154.439 102.261 154.647 102.352 154.82 102.534C154.994 102.716 155.08 102.933 155.08 103.184C155.08 103.435 154.994 103.648 154.82 103.821C154.647 103.994 154.439 104.081 154.196 104.081ZM151.947 104.081C151.696 104.081 151.479 103.994 151.297 103.821C151.124 103.648 151.037 103.435 151.037 103.184C151.037 102.933 151.124 102.716 151.297 102.534C151.479 102.352 151.696 102.261 151.947 102.261C152.19 102.261 152.398 102.352 152.571 102.534C152.745 102.716 152.831 102.933 152.831 103.184C152.831 103.435 152.745 103.648 152.571 103.821C152.398 103.994 152.19 104.081 151.947 104.081ZM158.491 99.245C159.072 99.245 159.458 99.1713 159.648 99.024C159.839 98.868 159.934 98.6947 159.934 98.504C159.934 98.296 159.874 98.0533 159.752 97.776C159.64 97.4987 159.497 97.2083 159.323 96.905C159.15 96.6017 158.968 96.3113 158.777 96.034C158.587 95.7567 158.422 95.514 158.283 95.306L159.83 94.279C160.394 95.033 160.836 95.7653 161.156 96.476C161.486 97.178 161.702 97.75 161.806 98.192C161.902 98.608 162.084 98.8897 162.352 99.037C162.621 99.1757 162.903 99.245 163.197 99.245C163.527 99.245 163.761 99.3317 163.899 99.505C164.047 99.6697 164.12 99.8777 164.12 100.129C164.12 100.398 164.029 100.623 163.847 100.805C163.674 100.978 163.414 101.065 163.067 101.065C162.253 101.065 161.646 100.814 161.247 100.311C161.013 100.536 160.684 100.723 160.259 100.87C159.835 101.009 159.332 101.078 158.751 101.078C158.353 101.078 157.906 101.03 157.412 100.935C156.918 100.84 156.485 100.688 156.112 100.48L156.749 98.829C157.07 98.9763 157.378 99.0847 157.672 99.154C157.976 99.2147 158.249 99.245 158.491 99.245ZM163.084 101.065L163.214 99.245C164.15 99.245 165.06 99.141 165.944 98.933C166.828 98.725 167.612 98.3913 168.297 97.932C167.898 97.698 167.456 97.516 166.971 97.386C166.494 97.256 165.97 97.191 165.398 97.191C165.181 97.191 164.956 97.204 164.722 97.23C164.497 97.2473 164.267 97.282 164.033 97.334L163.773 95.553C164.024 95.4923 164.289 95.4447 164.566 95.41C164.843 95.3753 165.095 95.358 165.32 95.358C165.909 95.358 166.438 95.436 166.906 95.592C167.374 95.748 167.799 95.93 168.18 96.138C168.57 96.346 168.93 96.528 169.259 96.684C169.597 96.84 169.926 96.918 170.247 96.918H170.728L170.936 98.647C170.555 98.673 170.204 98.7467 169.883 98.868C169.562 98.9893 169.242 99.1453 168.921 99.336C168.609 99.518 168.271 99.7087 167.907 99.908C167.552 100.107 167.149 100.294 166.698 100.467C166.247 100.64 165.727 100.783 165.138 100.896C164.549 101.009 163.864 101.065 163.084 101.065ZM165.333 94.149C165.064 94.149 164.835 94.058 164.644 93.876C164.462 93.694 164.371 93.4687 164.371 93.2C164.371 92.9313 164.462 92.7017 164.644 92.511C164.835 92.3203 165.064 92.225 165.333 92.225C165.593 92.225 165.814 92.3203 165.996 92.511C166.187 92.7017 166.282 92.9313 166.282 93.2C166.282 93.4687 166.187 93.694 165.996 93.876C165.814 94.058 165.593 94.149 165.333 94.149ZM181.903 101.065C181.253 101.065 180.698 100.978 180.239 100.805C179.779 100.632 179.433 100.337 179.199 99.921C178.653 100.025 178.128 100.06 177.626 100.025C177.123 99.9817 176.677 99.8733 176.287 99.7C175.897 99.518 175.589 99.2623 175.364 98.933C175.138 98.595 175.026 98.179 175.026 97.685C175.026 97.1043 175.182 96.5973 175.494 96.164C175.814 95.722 176.248 95.3493 176.794 95.046C177.348 94.7427 177.972 94.5087 178.666 94.344L178.627 93.356H180.46L180.681 97.958C180.707 98.4953 180.824 98.8463 181.032 99.011C181.248 99.167 181.582 99.245 182.033 99.245C182.362 99.245 182.596 99.3317 182.735 99.505C182.873 99.6697 182.943 99.8777 182.943 100.129C182.943 100.398 182.852 100.623 182.67 100.805C182.496 100.978 182.241 101.065 181.903 101.065ZM176.846 97.516C176.846 97.7153 176.941 97.8713 177.132 97.984C177.331 98.0967 177.582 98.1703 177.886 98.205C178.189 98.231 178.505 98.2137 178.835 98.153L178.757 96.151C178.167 96.2463 177.699 96.4197 177.353 96.671C177.015 96.9223 176.846 97.204 176.846 97.516ZM177.314 92.004C177.062 92.004 176.846 91.9173 176.664 91.744C176.49 91.562 176.404 91.3497 176.404 91.107C176.404 90.8557 176.49 90.639 176.664 90.457C176.846 90.275 177.062 90.184 177.314 90.184C177.556 90.184 177.764 90.275 177.938 90.457C178.111 90.639 178.198 90.8557 178.198 91.107C178.198 91.3497 178.111 91.562 177.938 91.744C177.764 91.9173 177.556 92.004 177.314 92.004ZM179.563 92.017C179.311 92.017 179.095 91.9303 178.913 91.757C178.739 91.5837 178.653 91.3713 178.653 91.12C178.653 90.8687 178.739 90.652 178.913 90.47C179.095 90.288 179.311 90.197 179.563 90.197C179.805 90.197 180.013 90.288 180.187 90.47C180.36 90.652 180.447 90.8687 180.447 91.12C180.447 91.3713 180.36 91.5837 180.187 91.757C180.013 91.9303 179.805 92.017 179.563 92.017ZM181.898 101.065L182.028 99.258C182.288 99.2667 182.531 99.2667 182.756 99.258C182.99 99.2407 183.207 99.2233 183.406 99.206C183.216 98.9807 183.055 98.7293 182.925 98.452C182.804 98.166 182.743 97.8453 182.743 97.49C182.743 96.9527 182.878 96.4847 183.146 96.086C183.415 95.6787 183.753 95.3623 184.16 95.137C184.576 94.9117 185.001 94.799 185.434 94.799C185.954 94.799 186.405 94.9203 186.786 95.163C187.168 95.4057 187.462 95.7263 187.67 96.125C187.887 96.515 187.995 96.9353 187.995 97.386C187.995 97.75 187.935 98.0837 187.813 98.387C187.692 98.6903 187.532 98.959 187.332 99.193C187.592 99.2103 187.852 99.2233 188.112 99.232C188.381 99.2407 188.641 99.245 188.892 99.245C189.222 99.245 189.456 99.3317 189.594 99.505C189.742 99.6697 189.815 99.8777 189.815 100.129C189.815 100.398 189.724 100.623 189.542 100.805C189.36 100.978 189.1 101.065 188.762 101.065C188.121 101.065 187.497 101.022 186.89 100.935C186.284 100.848 185.755 100.723 185.304 100.558C184.984 100.697 184.524 100.818 183.926 100.922C183.328 101.026 182.652 101.074 181.898 101.065ZM184.537 97.62C184.537 97.8367 184.598 98.0403 184.719 98.231C184.841 98.4217 185.01 98.5993 185.226 98.764C185.538 98.6253 185.777 98.452 185.941 98.244C186.115 98.036 186.201 97.8107 186.201 97.568C186.201 97.334 186.128 97.1043 185.98 96.879C185.842 96.6537 185.647 96.541 185.395 96.541C185.153 96.541 184.949 96.645 184.784 96.853C184.62 97.061 184.537 97.3167 184.537 97.62ZM185.447 93.59C185.179 93.59 184.949 93.499 184.758 93.317C184.576 93.135 184.485 92.9097 184.485 92.641C184.485 92.3723 184.576 92.1427 184.758 91.952C184.949 91.7613 185.179 91.666 185.447 91.666C185.707 91.666 185.928 91.7613 186.11 91.952C186.301 92.1427 186.396 92.3723 186.396 92.641C186.396 92.9097 186.301 93.135 186.11 93.317C185.928 93.499 185.707 93.59 185.447 93.59ZM188.779 101.065L188.909 99.245C189.308 99.245 189.594 99.206 189.767 99.128C189.941 99.0413 190.045 98.8853 190.079 98.66C190.114 98.426 190.123 98.088 190.105 97.646L189.871 91.484H191.704L191.964 97.776C191.982 98.2787 191.96 98.7337 191.899 99.141C191.847 99.5397 191.713 99.882 191.496 100.168C191.288 100.454 190.963 100.675 190.521 100.831C190.088 100.987 189.507 101.065 188.779 101.065ZM196.76 101.065C195.954 101.065 195.33 100.983 194.888 100.818C194.454 100.653 194.147 100.398 193.965 100.051C193.791 99.6957 193.696 99.2493 193.679 98.712L193.406 91.484H195.226L195.499 97.841C195.516 98.2397 195.559 98.5387 195.629 98.738C195.698 98.9373 195.828 99.0717 196.019 99.141C196.209 99.2103 196.5 99.245 196.89 99.245C197.21 99.245 197.444 99.3317 197.592 99.505C197.739 99.6697 197.813 99.8777 197.813 100.129C197.813 100.398 197.722 100.623 197.54 100.805C197.358 100.978 197.098 101.065 196.76 101.065ZM196.777 101.065L196.907 99.245C197.843 99.245 198.753 99.141 199.637 98.933C200.521 98.725 201.306 98.3913 201.99 97.932C201.592 97.698 201.15 97.516 200.664 97.386C200.188 97.256 199.663 97.191 199.091 97.191C198.875 97.191 198.649 97.204 198.415 97.23C198.19 97.2473 197.96 97.282 197.726 97.334L197.466 95.553C197.718 95.4923 197.982 95.4447 198.259 95.41C198.537 95.3753 198.788 95.358 199.013 95.358C199.603 95.358 200.131 95.436 200.599 95.592C201.067 95.748 201.492 95.93 201.873 96.138C202.263 96.346 202.623 96.528 202.952 96.684C203.29 96.84 203.62 96.918 203.94 96.918H204.421L204.629 98.647C204.248 98.673 203.897 98.7467 203.576 98.868C203.256 98.9893 202.935 99.1453 202.614 99.336C202.302 99.518 201.964 99.7087 201.6 99.908C201.245 100.107 200.842 100.294 200.391 100.467C199.941 100.64 199.421 100.783 198.831 100.896C198.242 101.009 197.557 101.065 196.777 101.065ZM199.026 94.149C198.758 94.149 198.528 94.058 198.337 93.876C198.155 93.694 198.064 93.4687 198.064 93.2C198.064 92.9313 198.155 92.7017 198.337 92.511C198.528 92.3203 198.758 92.225 199.026 92.225C199.286 92.225 199.507 92.3203 199.689 92.511C199.88 92.7017 199.975 92.9313 199.975 93.2C199.975 93.4687 199.88 93.694 199.689 93.876C199.507 94.058 199.286 94.149 199.026 94.149ZM205.694 103.99L205.317 102.17C206.097 102.075 206.751 101.949 207.28 101.793C207.817 101.646 208.233 101.403 208.528 101.065H208.177C207.362 101.065 206.721 100.918 206.253 100.623C205.794 100.32 205.564 99.804 205.564 99.076C205.564 98.686 205.629 98.296 205.759 97.906C205.898 97.516 206.088 97.1607 206.331 96.84C206.574 96.5107 206.855 96.2507 207.176 96.06C207.505 95.8607 207.861 95.761 208.242 95.761C208.753 95.761 209.204 95.9213 209.594 96.242C209.993 96.5627 210.3 96.9873 210.517 97.516C210.742 98.0447 210.855 98.621 210.855 99.245H211.882C212.203 99.245 212.437 99.3317 212.584 99.505C212.731 99.6697 212.805 99.8777 212.805 100.129C212.805 100.398 212.714 100.623 212.532 100.805C212.35 100.978 212.09 101.065 211.752 101.065H210.556C210.218 101.966 209.629 102.66 208.788 103.145C207.956 103.639 206.925 103.921 205.694 103.99ZM207.358 98.764C207.358 98.8593 207.388 98.959 207.449 99.063C207.518 99.1583 207.67 99.2363 207.904 99.297C208.138 99.349 208.511 99.3533 209.022 99.31C209.013 98.8073 208.931 98.413 208.775 98.127C208.619 97.8323 208.415 97.685 208.164 97.685C207.982 97.685 207.83 97.75 207.709 97.88C207.588 98.0013 207.497 98.1487 207.436 98.322C207.384 98.4867 207.358 98.634 207.358 98.764ZM211.771 101.065L211.901 99.245C212.464 99.245 212.858 99.1843 213.084 99.063C213.309 98.933 213.422 98.6643 213.422 98.257C213.422 98.0143 213.387 97.724 213.318 97.386C213.257 97.048 213.175 96.7013 213.071 96.346C212.967 95.982 212.863 95.644 212.759 95.332L214.553 94.838C214.657 95.1327 214.761 95.475 214.865 95.865C214.969 96.255 215.055 96.658 215.125 97.074C215.203 97.49 215.242 97.8843 215.242 98.257C215.242 98.8463 215.151 99.3273 214.969 99.7C214.787 100.064 214.531 100.346 214.202 100.545C213.881 100.744 213.513 100.883 213.097 100.961C212.681 101.03 212.239 101.065 211.771 101.065ZM213.37 104.055C213.118 104.055 212.902 103.968 212.72 103.795C212.546 103.622 212.46 103.409 212.46 103.158C212.46 102.907 212.546 102.686 212.72 102.495C212.902 102.313 213.118 102.222 213.37 102.222C213.612 102.222 213.825 102.313 214.007 102.495C214.189 102.686 214.28 102.907 214.28 103.158C214.28 103.409 214.189 103.622 214.007 103.795C213.825 103.968 213.612 104.055 213.37 104.055ZM219.767 100.48L220.404 98.829C221.019 99.1063 221.621 99.245 222.211 99.245C223.129 99.245 223.589 98.998 223.589 98.504C223.589 98.3567 223.541 98.153 223.446 97.893C223.359 97.633 223.199 97.295 222.965 96.879C222.731 96.4543 222.388 95.93 221.938 95.306L223.485 94.279C224.1 95.1717 224.594 96.0167 224.967 96.814C225.339 97.6113 225.526 98.283 225.526 98.829C225.526 99.4963 225.257 100.038 224.72 100.454C224.191 100.87 223.42 101.078 222.406 101.078C222.154 101.078 221.868 101.056 221.548 101.013C221.236 100.97 220.924 100.905 220.612 100.818C220.3 100.731 220.018 100.619 219.767 100.48ZM222.224 93.291C221.955 93.291 221.725 93.2 221.535 93.018C221.353 92.836 221.262 92.6107 221.262 92.342C221.262 92.0733 221.353 91.8437 221.535 91.653C221.725 91.4623 221.955 91.367 222.224 91.367C222.484 91.367 222.705 91.4623 222.887 91.653C223.077 91.8437 223.173 92.0733 223.173 92.342C223.173 92.6107 223.077 92.836 222.887 93.018C222.705 93.2 222.484 93.291 222.224 93.291ZM230.148 101.065C229.342 101.065 228.718 100.983 228.276 100.818C227.843 100.653 227.535 100.398 227.353 100.051C227.18 99.6957 227.085 99.2493 227.067 98.712L226.794 91.484H228.614L228.887 97.841C228.905 98.2397 228.948 98.5387 229.017 98.738C229.087 98.9373 229.217 99.0717 229.407 99.141C229.598 99.2103 229.888 99.245 230.278 99.245C230.599 99.245 230.833 99.3317 230.98 99.505C231.128 99.6697 231.201 99.8777 231.201 100.129C231.201 100.398 231.11 100.623 230.928 100.805C230.746 100.978 230.486 101.065 230.148 101.065ZM230.166 101.065L230.296 99.245C230.608 99.245 230.877 99.2147 231.102 99.154C231.327 99.0933 231.518 98.972 231.674 98.79C231.83 98.5993 231.96 98.322 232.064 97.958C232.177 97.594 232.276 97.1087 232.363 96.502L234.066 96.788C234.031 96.9873 233.992 97.2257 233.949 97.503C233.906 97.7803 233.884 98.036 233.884 98.27C233.884 98.582 234.014 98.8247 234.274 98.998C234.534 99.1627 234.98 99.245 235.613 99.245C235.934 99.245 236.163 99.3317 236.302 99.505C236.449 99.6697 236.523 99.8777 236.523 100.129C236.523 100.398 236.432 100.623 236.25 100.805C236.077 100.978 235.821 101.065 235.483 101.065C234.876 101.065 234.356 100.987 233.923 100.831C233.498 100.675 233.186 100.398 232.987 99.999C232.753 100.311 232.476 100.545 232.155 100.701C231.843 100.848 231.514 100.948 231.167 101C230.829 101.043 230.495 101.065 230.166 101.065ZM232.09 95.319C231.839 95.319 231.622 95.2323 231.44 95.059C231.267 94.877 231.18 94.6647 231.18 94.422C231.18 94.1707 231.267 93.954 231.44 93.772C231.622 93.59 231.839 93.499 232.09 93.499C232.333 93.499 232.541 93.59 232.714 93.772C232.887 93.954 232.974 94.1707 232.974 94.422C232.974 94.6647 232.887 94.877 232.714 95.059C232.541 95.2323 232.333 95.319 232.09 95.319ZM234.339 95.332C234.088 95.332 233.871 95.2453 233.689 95.072C233.516 94.8987 233.429 94.6863 233.429 94.435C233.429 94.1837 233.516 93.967 233.689 93.785C233.871 93.603 234.088 93.512 234.339 93.512C234.582 93.512 234.79 93.603 234.963 93.785C235.136 93.967 235.223 94.1837 235.223 94.435C235.223 94.6863 235.136 94.8987 234.963 95.072C234.79 95.2453 234.582 95.332 234.339 95.332ZM235.485 101.065L235.615 99.245C235.901 99.245 236.135 99.2233 236.317 99.18C236.499 99.128 236.647 99.0197 236.759 98.855C236.881 98.6817 236.985 98.426 237.071 98.088C237.167 97.7413 237.271 97.2733 237.383 96.684L239.073 96.996C239.039 97.1867 238.991 97.425 238.93 97.711C238.878 97.997 238.852 98.244 238.852 98.452C238.852 98.6947 238.93 98.8897 239.086 99.037C239.242 99.1757 239.537 99.245 239.97 99.245C240.187 99.245 240.373 99.2233 240.529 99.18C240.694 99.128 240.833 99.0197 240.945 98.855C241.067 98.6817 241.171 98.4173 241.257 98.062C241.353 97.698 241.444 97.2083 241.53 96.593L243.246 96.866C243.194 97.1693 243.142 97.49 243.09 97.828C243.038 98.166 243.012 98.4217 243.012 98.595C243.012 98.7597 243.09 98.9113 243.246 99.05C243.411 99.18 243.74 99.245 244.234 99.245C244.581 99.245 244.854 99.1757 245.053 99.037C245.261 98.8983 245.365 98.6557 245.365 98.309C245.365 97.9883 245.292 97.568 245.144 97.048C244.997 96.528 244.824 95.982 244.624 95.41L246.457 94.864C246.596 95.2367 246.717 95.6353 246.821 96.06C246.934 96.476 247.021 96.8833 247.081 97.282C247.151 97.6807 247.185 98.023 247.185 98.309C247.185 99.2017 246.921 99.8863 246.392 100.363C245.872 100.831 245.192 101.065 244.351 101.065C243.745 101.065 243.272 100.996 242.934 100.857C242.596 100.71 242.354 100.45 242.206 100.077C242.033 100.38 241.842 100.601 241.634 100.74C241.435 100.879 241.197 100.965 240.919 101C240.642 101.043 240.313 101.065 239.931 101.065C239.697 101.065 239.463 101.043 239.229 101C238.995 100.965 238.77 100.887 238.553 100.766C238.345 100.636 238.163 100.432 238.007 100.155C237.713 100.554 237.353 100.805 236.928 100.909C236.504 101.013 236.023 101.065 235.485 101.065ZM252.96 94.032C252.96 93.5987 252.925 93.174 252.856 92.758C252.795 92.3333 252.739 91.978 252.687 91.692L254.507 91.432C254.533 91.6053 254.563 91.835 254.598 92.121C254.641 92.407 254.676 92.7103 254.702 93.031C254.728 93.343 254.741 93.642 254.741 93.928C254.741 94.9593 254.529 95.8693 254.104 96.658C254.607 97.1867 254.94 97.6503 255.105 98.049C255.278 98.4477 255.365 98.7943 255.365 99.089C255.365 99.427 255.291 99.7433 255.144 100.038C255.005 100.324 254.776 100.558 254.455 100.74C254.134 100.913 253.705 101 253.168 101H249.346V99.258C250.49 98.4347 251.348 97.6547 251.92 96.918C251.452 96.5367 250.915 96.1293 250.308 95.696C249.701 95.2627 249.051 94.8293 248.358 94.396L249.307 93.005C250.035 93.4557 250.681 93.8803 251.244 94.279C251.816 94.6777 252.314 95.0547 252.739 95.41C252.886 94.9767 252.96 94.5173 252.96 94.032ZM251.686 99.245H252.531C252.973 99.245 253.263 99.206 253.402 99.128C253.541 99.05 253.61 98.946 253.61 98.816C253.61 98.6427 253.445 98.3783 253.116 98.023C252.726 98.439 252.249 98.8463 251.686 99.245ZM248.579 92.81L248.358 91.9C248.635 91.848 248.856 91.8047 249.021 91.77C248.865 91.6573 248.731 91.51 248.618 91.328C248.505 91.146 248.449 90.9467 248.449 90.73C248.449 90.418 248.518 90.1667 248.657 89.976C248.796 89.7853 248.973 89.6467 249.19 89.56C249.407 89.4733 249.632 89.43 249.866 89.43C250.117 89.43 250.347 89.4647 250.555 89.534L250.451 90.47C250.364 90.4527 250.278 90.4353 250.191 90.418C250.104 90.4007 250.009 90.392 249.905 90.392C249.784 90.392 249.68 90.431 249.593 90.509C249.506 90.5783 249.463 90.665 249.463 90.769C249.463 90.9423 249.532 91.094 249.671 91.224C249.818 91.3453 249.966 91.432 250.113 91.484C250.39 91.406 250.646 91.3193 250.88 91.224L251.14 92.095C250.811 92.2163 250.408 92.3463 249.931 92.485C249.463 92.615 249.012 92.7233 248.579 92.81ZM257.485 101L257.212 91.484H259.032L259.305 101H257.485Z" fill="#6C71A1"/>
<path d="M143.591 127.545C142.791 127.545 142.109 127.438 141.543 127.225C140.978 127.012 140.551 126.649 140.263 126.137C139.591 126.265 138.946 126.308 138.327 126.265C137.709 126.212 137.159 126.078 136.679 125.865C136.199 125.641 135.821 125.326 135.543 124.921C135.266 124.505 135.127 123.993 135.127 123.385C135.127 122.67 135.319 122.046 135.703 121.513C136.098 120.969 136.631 120.51 137.303 120.137C137.986 119.764 138.754 119.476 139.607 119.273L139.559 118.057H141.815L142.087 123.721C142.119 124.382 142.263 124.814 142.519 125.017C142.786 125.209 143.197 125.305 143.751 125.305C144.157 125.305 144.445 125.412 144.615 125.625C144.786 125.828 144.871 126.084 144.871 126.393C144.871 126.724 144.759 127.001 144.535 127.225C144.322 127.438 144.007 127.545 143.591 127.545ZM137.367 123.177C137.367 123.422 137.485 123.614 137.719 123.753C137.965 123.892 138.274 123.982 138.647 124.025C139.021 124.057 139.41 124.036 139.815 123.961L139.719 121.497C138.994 121.614 138.418 121.828 137.991 122.137C137.575 122.446 137.367 122.793 137.367 123.177ZM137.943 116.393C137.634 116.393 137.367 116.286 137.143 116.073C136.93 115.849 136.823 115.588 136.823 115.289C136.823 114.98 136.93 114.713 137.143 114.489C137.367 114.265 137.634 114.153 137.943 114.153C138.242 114.153 138.498 114.265 138.711 114.489C138.925 114.713 139.031 114.98 139.031 115.289C139.031 115.588 138.925 115.849 138.711 116.073C138.498 116.286 138.242 116.393 137.943 116.393ZM140.711 116.409C140.402 116.409 140.135 116.302 139.911 116.089C139.698 115.876 139.591 115.614 139.591 115.305C139.591 114.996 139.698 114.729 139.911 114.505C140.135 114.281 140.402 114.169 140.711 114.169C141.01 114.169 141.266 114.281 141.479 114.505C141.693 114.729 141.799 114.996 141.799 115.305C141.799 115.614 141.693 115.876 141.479 116.089C141.266 116.302 141.01 116.409 140.711 116.409ZM143.586 127.545L143.746 125.305C144.386 125.305 144.877 125.273 145.218 125.209C145.559 125.145 145.794 125.028 145.922 124.857C146.061 124.676 146.13 124.42 146.13 124.089C146.13 123.79 146.087 123.433 146.002 123.017C145.927 122.601 145.826 122.174 145.698 121.737C145.57 121.289 145.442 120.873 145.314 120.489L147.522 119.881C147.65 120.244 147.778 120.665 147.906 121.145C148.045 121.625 148.157 122.121 148.242 122.633C148.327 123.145 148.37 123.63 148.37 124.089C148.37 124.814 148.253 125.406 148.018 125.865C147.783 126.313 147.453 126.66 147.026 126.905C146.61 127.15 146.109 127.321 145.522 127.417C144.935 127.502 144.29 127.545 143.586 127.545ZM147.538 131.257C147.229 131.257 146.962 131.15 146.738 130.937C146.525 130.724 146.418 130.462 146.418 130.153C146.418 129.844 146.525 129.577 146.738 129.353C146.962 129.129 147.229 129.017 147.538 129.017C147.837 129.017 148.093 129.129 148.306 129.353C148.519 129.577 148.626 129.844 148.626 130.153C148.626 130.462 148.519 130.724 148.306 130.937C148.093 131.15 147.837 131.257 147.538 131.257ZM144.77 131.257C144.461 131.257 144.194 131.15 143.97 130.937C143.757 130.724 143.65 130.462 143.65 130.153C143.65 129.844 143.757 129.577 143.97 129.353C144.194 129.129 144.461 129.017 144.77 129.017C145.069 129.017 145.325 129.129 145.538 129.353C145.751 129.577 145.858 129.844 145.858 130.153C145.858 130.462 145.751 130.724 145.538 130.937C145.325 131.15 145.069 131.257 144.77 131.257ZM150.248 131.145L149.784 128.905C150.744 128.788 151.549 128.633 152.2 128.441C152.861 128.26 153.373 127.961 153.736 127.545H153.304C152.301 127.545 151.512 127.364 150.936 127.001C150.371 126.628 150.088 125.993 150.088 125.097C150.088 124.617 150.168 124.137 150.328 123.657C150.499 123.177 150.733 122.74 151.032 122.345C151.331 121.94 151.677 121.62 152.072 121.385C152.477 121.14 152.915 121.017 153.384 121.017C154.013 121.017 154.568 121.214 155.048 121.609C155.539 122.004 155.917 122.526 156.184 123.177C156.461 123.828 156.6 124.537 156.6 125.305H157.864C158.259 125.305 158.547 125.412 158.728 125.625C158.909 125.828 159 126.084 159 126.393C159 126.724 158.888 127.001 158.664 127.225C158.44 127.438 158.12 127.545 157.704 127.545H156.232C155.816 128.654 155.091 129.508 154.056 130.105C153.032 130.713 151.763 131.06 150.248 131.145ZM152.296 124.713C152.296 124.83 152.333 124.953 152.408 125.081C152.493 125.198 152.68 125.294 152.968 125.369C153.256 125.433 153.715 125.438 154.344 125.385C154.333 124.766 154.232 124.281 154.04 123.929C153.848 123.566 153.597 123.385 153.288 123.385C153.064 123.385 152.877 123.465 152.728 123.625C152.579 123.774 152.467 123.956 152.392 124.169C152.328 124.372 152.296 124.553 152.296 124.713ZM166.015 127.753C164.82 127.753 163.865 127.689 163.151 127.561C162.436 127.433 161.881 127.257 161.487 127.033C161.103 126.809 160.809 126.548 160.607 126.249C160.212 126.814 159.764 127.172 159.263 127.321C158.761 127.47 158.249 127.545 157.727 127.545L157.887 125.305C158.324 125.305 158.644 125.209 158.847 125.017C159.06 124.814 159.231 124.484 159.359 124.025C159.497 123.566 159.668 122.942 159.871 122.153L161.903 122.649C161.679 123.513 161.567 124.073 161.567 124.329C161.567 124.574 161.631 124.777 161.759 124.937C161.897 125.097 162.18 125.225 162.607 125.321C163.023 124.681 163.487 124.073 163.999 123.497C164.511 122.91 165.055 122.393 165.631 121.945C166.207 121.497 166.804 121.145 167.423 120.889C168.041 120.633 168.671 120.505 169.311 120.505C170.377 120.505 171.204 120.809 171.791 121.417C172.388 122.025 172.687 122.809 172.687 123.769C172.687 124.548 172.463 125.236 172.015 125.833C171.577 126.43 170.868 126.9 169.887 127.241C168.916 127.582 167.625 127.753 166.015 127.753ZM169.087 122.745C168.617 122.745 168.143 122.878 167.663 123.145C167.193 123.412 166.735 123.758 166.287 124.185C165.849 124.612 165.455 125.054 165.103 125.513C165.263 125.513 165.433 125.513 165.615 125.513C166.841 125.513 167.807 125.454 168.511 125.337C169.215 125.22 169.711 125.044 169.999 124.809C170.297 124.574 170.447 124.281 170.447 123.929C170.447 123.63 170.34 123.358 170.127 123.113C169.913 122.868 169.567 122.745 169.087 122.745ZM173.775 127.545C172.953 127.545 172.191 127.438 171.487 127.225C170.783 127.001 170.244 126.729 169.871 126.409L171.311 124.857C171.695 125.017 172.089 125.134 172.495 125.209C172.9 125.273 173.38 125.305 173.935 125.305C174.329 125.305 174.617 125.412 174.799 125.625C174.98 125.828 175.071 126.084 175.071 126.393C175.071 126.724 174.959 127.001 174.735 127.225C174.511 127.438 174.191 127.545 173.775 127.545ZM168.847 119.017C168.516 119.017 168.233 118.905 167.999 118.681C167.775 118.457 167.663 118.18 167.663 117.849C167.663 117.518 167.775 117.236 167.999 117.001C168.233 116.766 168.516 116.649 168.847 116.649C169.167 116.649 169.439 116.766 169.663 117.001C169.897 117.236 170.015 117.518 170.015 117.849C170.015 118.18 169.897 118.457 169.663 118.681C169.439 118.905 169.167 119.017 168.847 119.017ZM173.725 127.545L173.885 125.305C174.397 125.305 174.872 125.284 175.309 125.241C175.757 125.188 176.168 125.118 176.541 125.033C176.317 124.777 176.082 124.532 175.837 124.297C175.592 124.062 175.373 123.865 175.181 123.705C175.128 123.662 175.064 123.55 174.989 123.369C174.925 123.177 174.866 122.98 174.813 122.777C174.76 122.574 174.733 122.425 174.733 122.329C174.733 122.084 174.845 121.822 175.069 121.545C175.304 121.268 175.613 121.012 175.997 120.777C176.392 120.532 176.824 120.334 177.293 120.185C177.773 120.025 178.258 119.945 178.749 119.945C179.73 119.945 180.472 120.158 180.973 120.585C181.485 121.012 181.741 121.572 181.741 122.265C181.741 122.745 181.64 123.225 181.437 123.705C181.245 124.185 180.952 124.638 180.557 125.065C180.888 125.14 181.24 125.198 181.613 125.241C181.986 125.284 182.37 125.305 182.765 125.305C183.16 125.305 183.448 125.412 183.629 125.625C183.81 125.828 183.901 126.084 183.901 126.393C183.901 126.724 183.789 127.001 183.565 127.225C183.341 127.438 183.021 127.545 182.605 127.545C181.698 127.545 180.898 127.47 180.205 127.321C179.512 127.161 178.893 126.937 178.349 126.649C177.741 126.926 177.048 127.145 176.269 127.305C175.501 127.465 174.653 127.545 173.725 127.545ZM176.813 122.297C177.08 122.51 177.378 122.782 177.709 123.113C178.05 123.444 178.365 123.78 178.653 124.121C179.24 123.684 179.533 123.209 179.533 122.697C179.533 122.484 179.453 122.297 179.293 122.137C179.133 121.966 178.845 121.881 178.429 121.881C178.216 121.881 177.954 121.918 177.645 121.993C177.336 122.057 177.058 122.158 176.813 122.297ZM182.617 127.545L182.777 125.305C183.268 125.305 183.62 125.257 183.833 125.161C184.047 125.054 184.175 124.862 184.217 124.585C184.26 124.297 184.271 123.881 184.249 123.337L183.961 115.753H186.217L186.537 123.497C186.559 124.116 186.532 124.676 186.457 125.177C186.393 125.668 186.228 126.089 185.961 126.441C185.705 126.793 185.305 127.065 184.761 127.257C184.228 127.449 183.513 127.545 182.617 127.545ZM188.647 127.465L188.311 115.753H190.551L190.887 127.465H188.647ZM196.471 127.017C196.471 126.654 196.519 126.19 196.615 125.625C196.721 125.06 196.951 124.388 197.303 123.609L199.271 124.297C199.089 124.798 198.951 125.23 198.855 125.593C198.759 125.945 198.711 126.292 198.711 126.633C198.711 127.337 199.009 127.892 199.607 128.297C200.215 128.713 201.084 128.921 202.215 128.921C203.388 128.921 204.305 128.809 204.967 128.585C205.639 128.372 205.975 128.052 205.975 127.625C205.975 127.444 205.825 127.262 205.527 127.081C205.239 126.9 204.737 126.681 204.023 126.425L204.551 124.169C205.457 124.553 206.284 124.841 207.031 125.033C207.777 125.214 208.439 125.305 209.015 125.305C209.42 125.305 209.708 125.412 209.879 125.625C210.049 125.828 210.135 126.084 210.135 126.393C210.135 126.724 210.023 127.001 209.799 127.225C209.575 127.438 209.26 127.545 208.855 127.545H208.119C208.14 127.652 208.151 127.742 208.151 127.817C208.151 127.902 208.151 127.982 208.151 128.057C208.151 128.409 208.028 128.766 207.783 129.129C207.548 129.492 207.18 129.828 206.679 130.137C206.177 130.446 205.537 130.692 204.759 130.873C203.991 131.065 203.073 131.161 202.007 131.161C200.268 131.161 198.908 130.825 197.927 130.153C196.956 129.492 196.471 128.446 196.471 127.017ZM203.575 134.873C203.265 134.873 202.999 134.766 202.775 134.553C202.561 134.34 202.455 134.078 202.455 133.769C202.455 133.46 202.561 133.193 202.775 132.969C202.999 132.745 203.265 132.633 203.575 132.633C203.873 132.633 204.129 132.745 204.343 132.969C204.556 133.193 204.663 133.46 204.663 133.769C204.663 134.078 204.556 134.34 204.343 134.553C204.129 134.766 203.873 134.873 203.575 134.873ZM200.807 134.873C200.497 134.873 200.231 134.766 200.007 134.553C199.793 134.34 199.687 134.078 199.687 133.769C199.687 133.46 199.793 133.193 200.007 132.969C200.231 132.745 200.497 132.633 200.807 132.633C201.105 132.633 201.361 132.745 201.575 132.969C201.788 133.193 201.895 133.46 201.895 133.769C201.895 134.078 201.788 134.34 201.575 134.553C201.361 134.766 201.105 134.873 200.807 134.873ZM208.852 127.545L209.012 125.321C209.886 125.321 210.596 125.316 211.14 125.305C211.684 125.294 212.105 125.273 212.404 125.241C212.713 125.198 212.942 125.15 213.092 125.097C213.241 125.033 213.369 124.964 213.476 124.889C213.561 124.825 213.636 124.745 213.7 124.649C213.774 124.553 213.838 124.436 213.892 124.297C213.454 124.457 213.001 124.537 212.532 124.537C211.678 124.537 211.006 124.361 210.516 124.009C210.025 123.646 209.78 123.012 209.78 122.105C209.78 121.636 209.86 121.172 210.02 120.713C210.18 120.244 210.409 119.822 210.708 119.449C211.006 119.065 211.358 118.761 211.764 118.537C212.169 118.302 212.617 118.185 213.108 118.185C213.833 118.185 214.43 118.398 214.9 118.825C215.38 119.241 215.732 119.806 215.956 120.521C216.19 121.225 216.308 122.009 216.308 122.873C216.308 123.63 216.196 124.292 215.972 124.857C215.748 125.412 215.481 125.849 215.172 126.169C214.916 126.436 214.622 126.66 214.292 126.841C213.961 127.022 213.556 127.166 213.076 127.273C212.606 127.369 212.025 127.438 211.332 127.481C210.649 127.524 209.822 127.545 208.852 127.545ZM211.988 121.673C211.988 122.132 212.345 122.361 213.06 122.361C213.401 122.361 213.742 122.308 214.084 122.201C214.03 121.614 213.908 121.166 213.716 120.857C213.524 120.548 213.278 120.393 212.98 120.393C212.724 120.393 212.494 120.516 212.292 120.761C212.089 121.006 211.988 121.31 211.988 121.673ZM213.076 116.697C212.745 116.697 212.462 116.585 212.228 116.361C212.004 116.137 211.892 115.86 211.892 115.529C211.892 115.198 212.004 114.916 212.228 114.681C212.462 114.446 212.745 114.329 213.076 114.329C213.396 114.329 213.668 114.446 213.892 114.681C214.126 114.916 214.244 115.198 214.244 115.529C214.244 115.86 214.126 116.137 213.892 116.361C213.668 116.585 213.396 116.697 213.076 116.697ZM221.658 127.017C221.658 126.654 221.706 126.19 221.802 125.625C221.909 125.06 222.138 124.388 222.49 123.609L224.458 124.297C224.277 124.798 224.138 125.23 224.042 125.593C223.946 125.945 223.898 126.292 223.898 126.633C223.898 127.337 224.197 127.892 224.794 128.297C225.402 128.713 226.272 128.921 227.402 128.921C228.576 128.921 229.493 128.809 230.154 128.585C230.826 128.372 231.162 128.052 231.162 127.625C231.162 127.444 231.013 127.262 230.714 127.081C230.426 126.9 229.925 126.681 229.21 126.425L229.738 124.169C230.645 124.553 231.472 124.841 232.218 125.033C232.965 125.214 233.626 125.305 234.202 125.305C234.608 125.305 234.896 125.412 235.066 125.625C235.237 125.828 235.322 126.084 235.322 126.393C235.322 126.724 235.21 127.001 234.986 127.225C234.762 127.438 234.448 127.545 234.042 127.545H233.306C233.328 127.652 233.338 127.742 233.338 127.817C233.338 127.902 233.338 127.982 233.338 128.057C233.338 128.409 233.216 128.766 232.97 129.129C232.736 129.492 232.368 129.828 231.866 130.137C231.365 130.446 230.725 130.692 229.946 130.873C229.178 131.065 228.261 131.161 227.194 131.161C225.456 131.161 224.096 130.825 223.114 130.153C222.144 129.492 221.658 128.446 221.658 127.017ZM228.762 134.873C228.453 134.873 228.186 134.766 227.962 134.553C227.749 134.34 227.642 134.078 227.642 133.769C227.642 133.46 227.749 133.193 227.962 132.969C228.186 132.745 228.453 132.633 228.762 132.633C229.061 132.633 229.317 132.745 229.53 132.969C229.744 133.193 229.85 133.46 229.85 133.769C229.85 134.078 229.744 134.34 229.53 134.553C229.317 134.766 229.061 134.873 228.762 134.873ZM225.994 134.873C225.685 134.873 225.418 134.766 225.194 134.553C224.981 134.34 224.874 134.078 224.874 133.769C224.874 133.46 224.981 133.193 225.194 132.969C225.418 132.745 225.685 132.633 225.994 132.633C226.293 132.633 226.549 132.745 226.762 132.969C226.976 133.193 227.082 133.46 227.082 133.769C227.082 134.078 226.976 134.34 226.762 134.553C226.549 134.766 226.293 134.873 225.994 134.873ZM234.039 127.545L234.199 125.321C234.519 125.332 234.818 125.332 235.095 125.321C235.383 125.3 235.65 125.278 235.895 125.257C235.66 124.98 235.463 124.67 235.303 124.329C235.154 123.977 235.079 123.582 235.079 123.145C235.079 122.484 235.244 121.908 235.575 121.417C235.906 120.916 236.322 120.526 236.823 120.249C237.335 119.972 237.858 119.833 238.391 119.833C239.031 119.833 239.586 119.982 240.055 120.281C240.524 120.58 240.887 120.974 241.143 121.465C241.41 121.945 241.543 122.462 241.543 123.017C241.543 123.465 241.468 123.876 241.319 124.249C241.17 124.622 240.972 124.953 240.727 125.241C241.047 125.262 241.367 125.278 241.687 125.289C242.018 125.3 242.338 125.305 242.647 125.305C243.052 125.305 243.34 125.412 243.511 125.625C243.692 125.828 243.783 126.084 243.783 126.393C243.783 126.724 243.671 127.001 243.447 127.225C243.223 127.438 242.903 127.545 242.487 127.545C241.698 127.545 240.93 127.492 240.183 127.385C239.436 127.278 238.786 127.124 238.231 126.921C237.836 127.092 237.271 127.241 236.535 127.369C235.799 127.497 234.967 127.556 234.039 127.545ZM237.287 123.305C237.287 123.572 237.362 123.822 237.511 124.057C237.66 124.292 237.868 124.51 238.135 124.713C238.519 124.542 238.812 124.329 239.015 124.073C239.228 123.817 239.335 123.54 239.335 123.241C239.335 122.953 239.244 122.67 239.063 122.393C238.892 122.116 238.652 121.977 238.343 121.977C238.044 121.977 237.794 122.105 237.591 122.361C237.388 122.617 237.287 122.932 237.287 123.305ZM238.407 118.345C238.076 118.345 237.794 118.233 237.559 118.009C237.335 117.785 237.223 117.508 237.223 117.177C237.223 116.846 237.335 116.564 237.559 116.329C237.794 116.094 238.076 115.977 238.407 115.977C238.727 115.977 238.999 116.094 239.223 116.329C239.458 116.564 239.575 116.846 239.575 117.177C239.575 117.508 239.458 117.785 239.223 118.009C238.999 118.233 238.727 118.345 238.407 118.345ZM242.508 127.545L242.668 125.305C243.052 125.305 243.382 125.268 243.66 125.193C243.937 125.118 244.172 124.969 244.364 124.745C244.556 124.51 244.716 124.169 244.844 123.721C244.982 123.273 245.105 122.676 245.212 121.929L247.308 122.281C247.265 122.526 247.217 122.82 247.164 123.161C247.11 123.502 247.084 123.817 247.084 124.105C247.084 124.489 247.244 124.788 247.564 125.001C247.884 125.204 248.433 125.305 249.212 125.305C249.606 125.305 249.889 125.412 250.06 125.625C250.241 125.828 250.332 126.084 250.332 126.393C250.332 126.724 250.22 127.001 249.996 127.225C249.782 127.438 249.468 127.545 249.052 127.545C248.305 127.545 247.665 127.449 247.132 127.257C246.609 127.065 246.225 126.724 245.98 126.233C245.692 126.617 245.35 126.905 244.956 127.097C244.572 127.278 244.166 127.401 243.74 127.465C243.324 127.518 242.913 127.545 242.508 127.545ZM246.972 131.257C246.662 131.257 246.396 131.15 246.172 130.937C245.958 130.724 245.852 130.462 245.852 130.153C245.852 129.844 245.958 129.577 246.172 129.353C246.396 129.129 246.662 129.017 246.972 129.017C247.27 129.017 247.526 129.129 247.74 129.353C247.953 129.577 248.06 129.844 248.06 130.153C248.06 130.462 247.953 130.724 247.74 130.937C247.526 131.15 247.27 131.257 246.972 131.257ZM244.204 131.257C243.894 131.257 243.628 131.15 243.404 130.937C243.19 130.724 243.084 130.462 243.084 130.153C243.084 129.844 243.19 129.577 243.404 129.353C243.628 129.129 243.894 129.017 244.204 129.017C244.502 129.017 244.758 129.129 244.972 129.353C245.185 129.577 245.292 129.844 245.292 130.153C245.292 130.462 245.185 130.724 244.972 130.937C244.758 131.15 244.502 131.257 244.204 131.257ZM249.055 127.545L249.215 125.305H249.999C250.212 124.974 250.436 124.654 250.671 124.345L250.383 115.753H252.623L252.863 121.977C253.471 121.465 254.111 121.054 254.783 120.745C255.465 120.436 256.153 120.281 256.847 120.281C257.551 120.281 258.153 120.425 258.655 120.713C259.156 121.001 259.54 121.401 259.807 121.913C260.084 122.414 260.223 122.99 260.223 123.641C260.223 124.334 260.025 124.958 259.631 125.513C259.247 126.068 258.591 126.526 257.663 126.889C257.268 127.038 256.841 127.161 256.383 127.257C255.924 127.353 255.385 127.422 254.767 127.465C254.148 127.518 253.407 127.545 252.543 127.545H249.055ZM256.655 122.521C256.175 122.521 255.695 122.654 255.215 122.921C254.745 123.188 254.292 123.534 253.855 123.961C253.428 124.377 253.033 124.825 252.671 125.305H252.799C254.143 125.305 255.188 125.241 255.935 125.113C256.692 124.974 257.22 124.788 257.519 124.553C257.828 124.318 257.983 124.046 257.983 123.737C257.983 123.428 257.876 123.15 257.663 122.905C257.449 122.649 257.113 122.521 256.655 122.521ZM256.383 118.793C256.052 118.793 255.769 118.681 255.535 118.457C255.311 118.233 255.199 117.956 255.199 117.625C255.199 117.294 255.311 117.012 255.535 116.777C255.769 116.542 256.052 116.425 256.383 116.425C256.703 116.425 256.975 116.542 257.199 116.777C257.433 117.012 257.551 117.294 257.551 117.625C257.551 117.956 257.433 118.233 257.199 118.457C256.975 118.681 256.703 118.793 256.383 118.793ZM261.764 131.145L261.3 128.905C262.26 128.788 263.065 128.633 263.716 128.441C264.377 128.26 264.889 127.961 265.252 127.545H264.82C263.817 127.545 263.028 127.364 262.452 127.001C261.886 126.628 261.604 125.993 261.604 125.097C261.604 124.617 261.684 124.137 261.844 123.657C262.014 123.177 262.249 122.74 262.548 122.345C262.846 121.94 263.193 121.62 263.588 121.385C263.993 121.14 264.43 121.017 264.9 121.017C265.529 121.017 266.084 121.214 266.564 121.609C267.054 122.004 267.433 122.526 267.7 123.177C267.977 123.828 268.116 124.537 268.116 125.305H269.38C269.774 125.305 270.062 125.412 270.244 125.625C270.425 125.828 270.516 126.084 270.516 126.393C270.516 126.724 270.404 127.001 270.18 127.225C269.956 127.438 269.636 127.545 269.22 127.545H267.748C267.332 128.654 266.606 129.508 265.572 130.105C264.548 130.713 263.278 131.06 261.764 131.145ZM263.812 124.713C263.812 124.83 263.849 124.953 263.924 125.081C264.009 125.198 264.196 125.294 264.484 125.369C264.772 125.433 265.23 125.438 265.86 125.385C265.849 124.766 265.748 124.281 265.556 123.929C265.364 123.566 265.113 123.385 264.804 123.385C264.58 123.385 264.393 123.465 264.244 123.625C264.094 123.774 263.982 123.956 263.908 124.169C263.844 124.372 263.812 124.553 263.812 124.713ZM269.242 127.545L269.402 125.305C269.893 125.305 270.245 125.257 270.458 125.161C270.672 125.054 270.8 124.862 270.842 124.585C270.885 124.297 270.896 123.881 270.874 123.337L270.586 115.753H272.842L273.162 123.497C273.184 124.116 273.157 124.676 273.082 125.177C273.018 125.668 272.853 126.089 272.586 126.441C272.33 126.793 271.93 127.065 271.386 127.257C270.853 127.449 270.138 127.545 269.242 127.545ZM275.272 127.465L274.936 115.753H277.176L277.512 127.465H275.272ZM288.264 131.817C287.314 131.817 286.445 131.678 285.656 131.401C284.877 131.124 284.253 130.686 283.784 130.089C283.325 129.492 283.096 128.708 283.096 127.737C283.096 127.374 283.144 126.926 283.24 126.393C283.336 125.86 283.586 125.156 283.992 124.281L285.944 125.033C285.709 125.609 285.549 126.057 285.464 126.377C285.378 126.697 285.336 127.022 285.336 127.353C285.336 128.068 285.629 128.617 286.216 129.001C286.813 129.385 287.624 129.577 288.648 129.577C289.426 129.577 290.109 129.481 290.696 129.289C291.282 129.108 291.757 128.862 292.12 128.553C292.482 128.254 292.728 127.934 292.856 127.593L292.872 127.545H292.456C291.24 127.545 290.338 127.332 289.752 126.905C289.176 126.468 288.882 125.828 288.872 124.985C288.872 124.505 288.957 124.041 289.128 123.593C289.309 123.134 289.554 122.729 289.864 122.377C290.173 122.025 290.52 121.748 290.904 121.545C291.298 121.332 291.704 121.225 292.12 121.225C293.048 121.225 293.8 121.588 294.376 122.313C294.952 123.028 295.277 124.02 295.352 125.289H296.52C296.914 125.289 297.197 125.396 297.368 125.609C297.549 125.812 297.64 126.068 297.64 126.377C297.64 126.718 297.528 127.001 297.304 127.225C297.08 127.438 296.765 127.545 296.36 127.545H295.096C294.968 128.014 294.797 128.446 294.584 128.841C294.05 129.833 293.245 130.574 292.168 131.065C291.09 131.566 289.789 131.817 288.264 131.817ZM291.048 124.601C291.048 124.761 291.09 124.905 291.176 125.033C291.272 125.161 291.464 125.257 291.752 125.321C292.05 125.374 292.509 125.39 293.128 125.369C293.106 124.729 293 124.249 292.808 123.929C292.616 123.598 292.365 123.433 292.056 123.433C291.853 123.433 291.677 123.497 291.528 123.625C291.378 123.753 291.261 123.908 291.176 124.089C291.09 124.27 291.048 124.441 291.048 124.601ZM290.728 119.753C290.418 119.753 290.152 119.646 289.928 119.433C289.714 119.209 289.608 118.948 289.608 118.649C289.608 118.34 289.714 118.073 289.928 117.849C290.152 117.625 290.418 117.513 290.728 117.513C291.026 117.513 291.282 117.625 291.496 117.849C291.709 118.073 291.816 118.34 291.816 118.649C291.816 118.948 291.709 119.209 291.496 119.433C291.282 119.646 291.026 119.753 290.728 119.753ZM293.496 119.769C293.186 119.769 292.92 119.662 292.696 119.449C292.482 119.236 292.376 118.974 292.376 118.665C292.376 118.356 292.482 118.089 292.696 117.865C292.92 117.641 293.186 117.529 293.496 117.529C293.794 117.529 294.05 117.641 294.264 117.865C294.477 118.089 294.584 118.356 294.584 118.665C294.584 118.974 294.477 119.236 294.264 119.449C294.05 119.662 293.794 119.769 293.496 119.769ZM296.367 127.545L296.527 125.305C296.911 125.305 297.242 125.268 297.519 125.193C297.797 125.118 298.031 124.969 298.223 124.745C298.415 124.51 298.575 124.169 298.703 123.721C298.842 123.273 298.965 122.676 299.071 121.929L301.167 122.281C301.125 122.526 301.077 122.82 301.023 123.161C300.97 123.502 300.943 123.817 300.943 124.105C300.943 124.489 301.103 124.788 301.423 125.001C301.743 125.204 302.293 125.305 303.071 125.305C303.466 125.305 303.749 125.412 303.919 125.625C304.101 125.828 304.191 126.084 304.191 126.393C304.191 126.724 304.079 127.001 303.855 127.225C303.642 127.438 303.327 127.545 302.911 127.545C302.165 127.545 301.525 127.449 300.991 127.257C300.469 127.065 300.085 126.724 299.839 126.233C299.551 126.617 299.21 126.905 298.815 127.097C298.431 127.278 298.026 127.401 297.599 127.465C297.183 127.518 296.773 127.545 296.367 127.545ZM300.831 131.257C300.522 131.257 300.255 131.15 300.031 130.937C299.818 130.724 299.711 130.462 299.711 130.153C299.711 129.844 299.818 129.577 300.031 129.353C300.255 129.129 300.522 129.017 300.831 129.017C301.13 129.017 301.386 129.129 301.599 129.353C301.813 129.577 301.919 129.844 301.919 130.153C301.919 130.462 301.813 130.724 301.599 130.937C301.386 131.15 301.13 131.257 300.831 131.257ZM298.063 131.257C297.754 131.257 297.487 131.15 297.263 130.937C297.05 130.724 296.943 130.462 296.943 130.153C296.943 129.844 297.05 129.577 297.263 129.353C297.487 129.129 297.754 129.017 298.063 129.017C298.362 129.017 298.618 129.129 298.831 129.353C299.045 129.577 299.151 129.844 299.151 130.153C299.151 130.462 299.045 130.724 298.831 130.937C298.618 131.15 298.362 131.257 298.063 131.257ZM302.914 127.545L303.074 125.305C303.426 125.305 303.714 125.278 303.938 125.225C304.162 125.161 304.343 125.028 304.482 124.825C304.631 124.612 304.759 124.297 304.866 123.881C304.983 123.454 305.111 122.878 305.25 122.153L307.33 122.537C307.287 122.772 307.229 123.065 307.154 123.417C307.09 123.769 307.058 124.073 307.058 124.329C307.058 124.628 307.149 124.868 307.33 125.049C307.522 125.22 307.885 125.305 308.418 125.305C308.695 125.305 308.93 125.278 309.122 125.225C309.325 125.161 309.495 125.028 309.634 124.825C309.783 124.612 309.911 124.286 310.018 123.849C310.135 123.401 310.247 122.798 310.354 122.041L312.466 122.377C312.402 122.75 312.338 123.145 312.274 123.561C312.21 123.977 312.178 124.292 312.178 124.505C312.178 124.718 312.274 124.905 312.466 125.065C312.669 125.225 313.069 125.305 313.666 125.305C314.605 125.305 315.074 124.884 315.074 124.041C315.074 123.678 315.058 123.268 315.026 122.809C315.005 122.34 314.951 121.758 314.866 121.065L316.93 120.905C317.005 121.822 317.09 122.569 317.186 123.145C317.282 123.721 317.41 124.169 317.57 124.489C317.741 124.798 317.965 125.012 318.242 125.129C318.53 125.246 318.903 125.305 319.362 125.305C319.767 125.305 320.055 125.412 320.226 125.625C320.407 125.828 320.498 126.084 320.498 126.393C320.498 126.724 320.386 127.001 320.162 127.225C319.949 127.438 319.629 127.545 319.202 127.545C318.85 127.545 318.487 127.508 318.114 127.433C317.741 127.358 317.389 127.204 317.058 126.969C316.738 126.734 316.477 126.382 316.274 125.913C316.039 126.564 315.698 127.001 315.25 127.225C314.802 127.438 314.221 127.545 313.506 127.545C312.941 127.545 312.45 127.46 312.034 127.289C311.618 127.108 311.325 126.804 311.154 126.377C310.951 126.718 310.722 126.974 310.466 127.145C310.21 127.305 309.906 127.412 309.554 127.465C309.202 127.518 308.786 127.545 308.306 127.545C308.018 127.545 307.73 127.524 307.442 127.481C307.165 127.438 306.898 127.342 306.642 127.193C306.397 127.033 306.189 126.782 306.018 126.441C305.655 126.921 305.213 127.225 304.69 127.353C304.167 127.481 303.575 127.545 302.914 127.545ZM319.211 127.545L319.371 125.305C319.776 125.305 320.096 125.268 320.331 125.193C320.576 125.118 320.768 124.969 320.907 124.745C321.056 124.51 321.179 124.169 321.275 123.721C321.382 123.273 321.488 122.676 321.595 121.929L323.691 122.281C323.648 122.526 323.6 122.82 323.547 123.161C323.494 123.502 323.467 123.817 323.467 124.105C323.467 124.361 323.52 124.58 323.627 124.761C323.744 124.942 323.947 125.081 324.235 125.177C324.534 125.262 324.96 125.305 325.515 125.305C325.92 125.305 326.208 125.412 326.379 125.625C326.55 125.828 326.635 126.084 326.635 126.393C326.635 126.724 326.523 127.001 326.299 127.225C326.086 127.438 325.771 127.545 325.355 127.545C324.502 127.545 323.835 127.454 323.355 127.273C322.886 127.092 322.55 126.766 322.347 126.297C321.952 126.852 321.483 127.198 320.939 127.337C320.406 127.476 319.83 127.545 319.211 127.545ZM322.635 120.457C322.304 120.457 322.022 120.345 321.787 120.121C321.563 119.897 321.451 119.62 321.451 119.289C321.451 118.958 321.563 118.676 321.787 118.441C322.022 118.206 322.304 118.089 322.635 118.089C322.955 118.089 323.227 118.206 323.451 118.441C323.686 118.676 323.803 118.958 323.803 119.289C323.803 119.62 323.686 119.897 323.451 120.121C323.227 120.345 322.955 120.457 322.635 120.457ZM325.352 127.545L325.512 125.305C325.896 125.305 326.226 125.268 326.504 125.193C326.781 125.118 327.016 124.969 327.208 124.745C327.4 124.51 327.56 124.169 327.688 123.721C327.826 123.273 327.949 122.676 328.056 121.929L330.152 122.281C330.109 122.526 330.061 122.82 330.008 123.161C329.954 123.502 329.928 123.817 329.928 124.105C329.928 124.489 330.088 124.788 330.408 125.001C330.728 125.204 331.277 125.305 332.056 125.305C332.45 125.305 332.733 125.412 332.904 125.625C333.085 125.828 333.176 126.084 333.176 126.393C333.176 126.724 333.064 127.001 332.84 127.225C332.626 127.438 332.312 127.545 331.896 127.545C331.149 127.545 330.509 127.449 329.976 127.257C329.453 127.065 329.069 126.724 328.824 126.233C328.536 126.617 328.194 126.905 327.8 127.097C327.416 127.278 327.01 127.401 326.584 127.465C326.168 127.518 325.757 127.545 325.352 127.545ZM327.72 120.473C327.41 120.473 327.144 120.366 326.92 120.153C326.706 119.929 326.6 119.668 326.6 119.369C326.6 119.06 326.706 118.793 326.92 118.569C327.144 118.345 327.41 118.233 327.72 118.233C328.018 118.233 328.274 118.345 328.488 118.569C328.701 118.793 328.808 119.06 328.808 119.369C328.808 119.668 328.701 119.929 328.488 120.153C328.274 120.366 328.018 120.473 327.72 120.473ZM330.488 120.489C330.178 120.489 329.912 120.382 329.688 120.169C329.474 119.956 329.368 119.694 329.368 119.385C329.368 119.076 329.474 118.809 329.688 118.585C329.912 118.361 330.178 118.249 330.488 118.249C330.786 118.249 331.042 118.361 331.256 118.585C331.469 118.809 331.576 119.076 331.576 119.385C331.576 119.694 331.469 119.956 331.256 120.169C331.042 120.382 330.786 120.489 330.488 120.489ZM331.898 127.545L332.058 125.305C332.549 125.305 332.901 125.257 333.114 125.161C333.328 125.054 333.456 124.862 333.498 124.585C333.541 124.297 333.552 123.881 333.53 123.337L333.242 115.753H335.498L335.818 123.497C335.84 124.116 335.813 124.676 335.738 125.177C335.674 125.668 335.509 126.089 335.242 126.441C334.986 126.793 334.586 127.065 334.042 127.257C333.509 127.449 332.794 127.545 331.898 127.545ZM337.928 127.465L337.592 115.753H339.832L340.168 127.465H337.928ZM348.904 127.513C348.307 127.513 347.768 127.412 347.288 127.209C346.819 126.996 346.445 126.681 346.168 126.265C345.901 125.838 345.768 125.31 345.768 124.681C345.768 124.169 345.907 123.604 346.184 122.985C346.472 122.366 346.936 121.737 347.576 121.097L346.952 120.601L348.456 118.761C349.672 119.689 350.621 120.585 351.304 121.449C351.997 122.313 352.344 123.257 352.344 124.281C352.344 124.612 352.291 124.969 352.184 125.353C352.077 125.726 351.896 126.078 351.64 126.409C351.384 126.729 351.032 126.996 350.584 127.209C350.147 127.412 349.587 127.513 348.904 127.513ZM349.08 125.305C349.475 125.305 349.763 125.193 349.944 124.969C350.136 124.734 350.232 124.473 350.232 124.185C350.232 123.94 350.157 123.662 350.008 123.353C349.859 123.044 349.533 122.676 349.032 122.249C348.637 122.622 348.355 122.985 348.184 123.337C348.024 123.678 347.944 123.988 347.944 124.265C347.944 124.606 348.056 124.868 348.28 125.049C348.504 125.22 348.771 125.305 349.08 125.305ZM347.624 117.545C347.315 117.545 347.048 117.438 346.824 117.225C346.611 117.001 346.504 116.74 346.504 116.441C346.504 116.132 346.611 115.865 346.824 115.641C347.048 115.417 347.315 115.305 347.624 115.305C347.923 115.305 348.179 115.417 348.392 115.641C348.605 115.865 348.712 116.132 348.712 116.441C348.712 116.74 348.605 117.001 348.392 117.225C348.179 117.438 347.923 117.545 347.624 117.545ZM350.392 117.561C350.083 117.561 349.816 117.454 349.592 117.241C349.379 117.028 349.272 116.766 349.272 116.457C349.272 116.148 349.379 115.881 349.592 115.657C349.816 115.433 350.083 115.321 350.392 115.321C350.691 115.321 350.947 115.433 351.16 115.657C351.373 115.881 351.48 116.148 351.48 116.457C351.48 116.766 351.373 117.028 351.16 117.241C350.947 117.454 350.691 117.561 350.392 117.561ZM352.483 131.145L351.667 129.097C353.032 128.617 354.024 128.068 354.643 127.449C355.261 126.82 355.571 126.153 355.571 125.449C355.571 125.001 355.475 124.521 355.283 124.009C355.091 123.497 354.84 122.942 354.531 122.345L356.627 121.337C357 122.052 357.288 122.734 357.491 123.385C357.704 124.036 357.811 124.644 357.811 125.209C357.811 126.521 357.384 127.678 356.531 128.681C355.677 129.684 354.328 130.505 352.483 131.145ZM359.685 131.145L359.221 128.905C360.245 128.777 361.099 128.606 361.781 128.393C362.475 128.19 362.987 127.844 363.317 127.353C363.168 127.406 363.003 127.449 362.821 127.481C362.651 127.513 362.464 127.529 362.261 127.529C361.749 127.529 361.285 127.449 360.869 127.289C360.464 127.118 360.139 126.857 359.893 126.505C359.648 126.153 359.525 125.694 359.525 125.129C359.525 124.606 359.611 124.1 359.781 123.609C359.952 123.118 360.187 122.681 360.485 122.297C360.795 121.902 361.147 121.593 361.541 121.369C361.947 121.134 362.373 121.017 362.821 121.017C363.344 121.017 363.808 121.15 364.213 121.417C364.619 121.684 364.955 122.036 365.221 122.473C365.488 122.9 365.691 123.364 365.829 123.865C365.968 124.366 366.037 124.846 366.037 125.305C366.037 126.51 365.781 127.534 365.269 128.377C364.757 129.22 364.027 129.87 363.077 130.329C362.128 130.798 360.997 131.07 359.685 131.145ZM361.733 124.681C361.733 125.129 362.069 125.353 362.741 125.353C363.093 125.353 363.44 125.305 363.781 125.209C363.76 124.921 363.707 124.638 363.621 124.361C363.547 124.073 363.435 123.838 363.285 123.657C363.136 123.476 362.949 123.385 362.725 123.385C362.427 123.385 362.187 123.529 362.005 123.817C361.824 124.094 361.733 124.382 361.733 124.681ZM367.302 126.825L368.086 124.793C368.844 125.134 369.585 125.305 370.31 125.305C371.441 125.305 372.006 125.001 372.006 124.393C372.006 124.212 371.948 123.961 371.83 123.641C371.724 123.321 371.526 122.905 371.238 122.393C370.95 121.87 370.529 121.225 369.974 120.457L371.878 119.193C372.636 120.292 373.244 121.332 373.702 122.313C374.161 123.294 374.39 124.121 374.39 124.793C374.39 125.614 374.06 126.281 373.398 126.793C372.748 127.305 371.798 127.561 370.55 127.561C370.241 127.561 369.889 127.534 369.494 127.481C369.11 127.428 368.726 127.348 368.342 127.241C367.958 127.134 367.612 126.996 367.302 126.825Z" fill="#2B3377"/>
<path d="M145.83 148.548L149.103 155.133L156.42 156.189L151.125 161.314L152.375 168.552L145.83 165.135L139.285 168.552L140.535 161.314L135.24 156.189L142.558 155.133L145.83 148.548Z" fill="#FFCD1A"/>
<path d="M169.272 148.548L172.544 155.133L179.861 156.189L174.566 161.314L175.816 168.552L169.272 165.135L162.727 168.552L163.977 161.314L158.682 156.189L165.999 155.133L169.272 148.548Z" fill="#FFCD1A"/>
<path d="M192.713 148.548L195.986 155.133L203.303 156.189L198.008 161.314L199.258 168.552L192.713 165.135L186.169 168.552L187.419 161.314L182.124 156.189L189.441 155.133L192.713 148.548Z" fill="#FFCD1A"/>
<path d="M216.155 148.548L219.428 155.133L226.745 156.189L221.45 161.314L222.7 168.552L216.155 165.135L209.61 168.552L210.86 161.314L205.565 156.189L212.883 155.133L216.155 148.548Z" fill="#FFCD1A"/>
<path d="M239.597 148.548L242.869 155.133L250.187 156.189L244.892 161.314L246.142 168.552L239.597 165.135L233.052 168.552L234.302 161.314L229.007 156.189L236.324 155.133L239.597 148.548Z" fill="#CCCCCC"/>
<circle opacity="0.6" cx="449.986" cy="169.179" r="12.893" stroke="#F8C953" stroke-width="2.34417"/>
<g filter="url(#filter1_d_154_2913)">
<path d="M446.066 208.721L438.576 198.863L431.684 209.873L423.804 204.869L430.564 193.89L418.604 191.11L452.169 168.343L446.066 208.721Z" fill="white"/>
<path d="M446.066 208.721L438.576 198.863L431.684 209.873L423.804 204.869L430.564 193.89L418.604 191.11L452.169 168.343L446.066 208.721Z" stroke="#F8C953" stroke-width="2.34417"/>
</g>
<defs>
<filter id="filter0_d_154_2913" x="0.102982" y="0.116531" width="618.862" height="396.342" filterUnits="userSpaceOnUse" color-interpolation-filters="sRGB">
<feFlood flood-opacity="0" result="BackgroundImageFix"/>
<feColorMatrix in="SourceAlpha" type="matrix" values="0 0 0 0 0 0 0 0 0 0 0 0 0 0 0 0 0 0 127 0" result="hardAlpha"/>
<feOffset dy="75.0135"/>
<feGaussianBlur stdDeviation="60.9485"/>
<feColorMatrix type="matrix" values="0 0 0 0 0 0 0 0 0 0 0 0 0 0 0 0 0 0 0.05 0"/>
<feBlend mode="normal" in2="BackgroundImageFix" result="effect1_dropShadow_154_2913"/>
<feBlend mode="normal" in="SourceGraphic" in2="effect1_dropShadow_154_2913" result="shape"/>
</filter>
<filter id="filter1_d_154_2913" x="404.007" y="158.837" width="61.4432" height="69.2105" filterUnits="userSpaceOnUse" color-interpolation-filters="sRGB">
<feFlood flood-opacity="0" result="BackgroundImageFix"/>
<feColorMatrix in="SourceAlpha" type="matrix" values="0 0 0 0 0 0 0 0 0 0 0 0 0 0 0 0 0 0 127 0" result="hardAlpha"/>
<feOffset dy="4.68835"/>
<feGaussianBlur stdDeviation="5.86043"/>
<feColorMatrix type="matrix" values="0 0 0 0 0.267483 0 0 0 0 0.281291 0 0 0 0 0.645833 0 0 0 0.4 0"/>
<feBlend mode="normal" in2="BackgroundImageFix" result="effect1_dropShadow_154_2913"/>
<feBlend mode="normal" in="SourceGraphic" in2="effect1_dropShadow_154_2913" result="shape"/>
</filter>
</defs>
</svg>
