<svg width="741" height="477" viewBox="0 0 741 477" fill="none" xmlns="http://www.w3.org/2000/svg">
<g filter="url(#filter0_d_154_2934)">
<path d="M594.805 221.518C594.805 232.092 586.233 240.664 575.66 240.664H165.146C154.572 240.664 146 232.092 146 221.518V91.5072C146 80.9334 154.572 72.3616 165.146 72.3616H548.945C553.641 72.3616 558.174 70.6354 561.68 67.5113L569.149 60.8575C579.081 52.0087 594.805 59.0592 594.805 72.3616V72.3616V221.518Z" fill="white"/>
</g>
<rect x="454.553" y="88.4905" width="112.201" height="39.2705" rx="8.4151" fill="#FD9B79"/>
<path d="M181.392 132.387C180.621 132.387 179.915 132.275 179.273 132.049C178.641 131.824 178.134 131.469 177.752 130.983C177.38 130.498 177.193 129.861 177.193 129.072C177.193 128.778 177.232 128.414 177.31 127.98C177.388 127.547 177.592 126.975 177.921 126.264L179.507 126.875C179.317 127.343 179.187 127.707 179.117 127.967C179.048 128.227 179.013 128.492 179.013 128.76C179.013 129.341 179.252 129.787 179.728 130.099C180.214 130.411 180.872 130.567 181.704 130.567C182.779 130.567 183.581 130.442 184.109 130.19C184.647 129.948 184.985 129.631 185.123 129.241C185.149 129.181 185.171 129.12 185.188 129.059C184.824 129.163 184.46 129.215 184.096 129.215C183.412 129.215 182.87 129.072 182.471 128.786C182.073 128.492 181.873 127.963 181.873 127.2C181.873 126.836 181.938 126.472 182.068 126.108C182.198 125.736 182.38 125.393 182.614 125.081C182.848 124.769 183.13 124.522 183.459 124.34C183.789 124.15 184.153 124.054 184.551 124.054C185.106 124.054 185.578 124.219 185.968 124.548C186.358 124.869 186.653 125.298 186.852 125.835C187.06 126.364 187.164 126.94 187.164 127.564C187.164 128.145 187.104 128.656 186.982 129.098C186.87 129.532 186.722 129.917 186.54 130.255C186.116 131.018 185.466 131.564 184.59 131.893C183.724 132.223 182.658 132.387 181.392 132.387ZM183.654 126.849C183.654 127.248 183.945 127.447 184.525 127.447C184.647 127.447 184.777 127.439 184.915 127.421C185.054 127.404 185.193 127.374 185.331 127.33C185.305 126.862 185.219 126.498 185.071 126.238C184.924 125.978 184.725 125.848 184.473 125.848C184.239 125.848 184.044 125.961 183.888 126.186C183.732 126.403 183.654 126.624 183.654 126.849ZM183.459 122.858C183.208 122.858 182.991 122.772 182.809 122.598C182.636 122.416 182.549 122.204 182.549 121.961C182.549 121.71 182.636 121.493 182.809 121.311C182.991 121.129 183.208 121.038 183.459 121.038C183.702 121.038 183.91 121.129 184.083 121.311C184.257 121.493 184.343 121.71 184.343 121.961C184.343 122.204 184.257 122.416 184.083 122.598C183.91 122.772 183.702 122.858 183.459 122.858ZM185.708 122.871C185.457 122.871 185.24 122.785 185.058 122.611C184.885 122.438 184.798 122.226 184.798 121.974C184.798 121.723 184.885 121.506 185.058 121.324C185.24 121.142 185.457 121.051 185.708 121.051C185.951 121.051 186.159 121.142 186.332 121.324C186.506 121.506 186.592 121.723 186.592 121.974C186.592 122.226 186.506 122.438 186.332 122.611C186.159 122.785 185.951 122.871 185.708 122.871ZM188.712 129.943L188.439 120.427H190.259L190.532 129.943H188.712ZM191.104 132.933L190.441 131.269C191.551 130.879 192.357 130.433 192.859 129.93C193.362 129.419 193.613 128.877 193.613 128.305C193.613 127.941 193.535 127.551 193.379 127.135C193.223 126.719 193.02 126.269 192.768 125.783L194.471 124.964C194.775 125.545 195.009 126.1 195.173 126.628C195.347 127.157 195.433 127.651 195.433 128.11C195.433 129.176 195.087 130.117 194.393 130.931C193.7 131.746 192.604 132.413 191.104 132.933ZM193.977 123.638C193.709 123.638 193.479 123.547 193.288 123.365C193.106 123.183 193.015 122.958 193.015 122.689C193.015 122.421 193.106 122.191 193.288 122C193.479 121.81 193.709 121.714 193.977 121.714C194.237 121.714 194.458 121.81 194.64 122C194.831 122.191 194.926 122.421 194.926 122.689C194.926 122.958 194.831 123.183 194.64 123.365C194.458 123.547 194.237 123.638 193.977 123.638ZM196.424 132.946L195.761 131.334C196.376 131.118 196.922 130.862 197.399 130.567C197.875 130.281 198.248 129.952 198.517 129.579C198.794 129.198 198.933 128.773 198.933 128.305C198.933 127.941 198.85 127.543 198.686 127.109C198.521 126.676 198.322 126.234 198.088 125.783L199.791 124.964C199.938 125.233 200.072 125.523 200.194 125.835C200.315 126.139 200.415 126.412 200.493 126.654C200.571 126.897 200.623 127.062 200.649 127.148C200.77 127.564 200.935 127.842 201.143 127.98C201.359 128.119 201.706 128.188 202.183 128.188C202.503 128.188 202.737 128.275 202.885 128.448C203.032 128.613 203.106 128.821 203.106 129.072C203.106 129.341 203.015 129.566 202.833 129.748C202.651 129.922 202.391 130.008 202.053 130.008C201.394 130.008 200.891 129.831 200.545 129.475C200.397 130.013 200.116 130.507 199.7 130.957C199.292 131.417 198.803 131.815 198.231 132.153C197.659 132.491 197.056 132.756 196.424 132.946ZM202.068 130.008L202.198 128.188C202.597 128.188 202.883 128.149 203.056 128.071C203.23 127.985 203.334 127.829 203.368 127.603C203.403 127.369 203.412 127.031 203.394 126.589L203.16 120.427H204.993L205.253 126.719C205.271 127.222 205.249 127.677 205.188 128.084C205.136 128.483 205.002 128.825 204.785 129.111C204.577 129.397 204.252 129.618 203.81 129.774C203.377 129.93 202.796 130.008 202.068 130.008ZM206.968 129.943L206.695 120.427H208.515L208.788 129.943H206.968ZM215.731 128.188C216.312 128.188 216.698 128.115 216.888 127.967C217.079 127.811 217.174 127.638 217.174 127.447C217.174 127.239 217.114 126.997 216.992 126.719C216.88 126.442 216.737 126.152 216.563 125.848C216.39 125.545 216.208 125.255 216.017 124.977C215.827 124.7 215.662 124.457 215.523 124.249L217.07 123.222C217.634 123.976 218.076 124.709 218.396 125.419C218.726 126.121 218.942 126.693 219.046 127.135C219.142 127.551 219.324 127.833 219.592 127.98C219.861 128.119 220.143 128.188 220.437 128.188C220.767 128.188 221.001 128.275 221.139 128.448C221.287 128.613 221.36 128.821 221.36 129.072C221.36 129.341 221.269 129.566 221.087 129.748C220.914 129.922 220.654 130.008 220.307 130.008C219.493 130.008 218.886 129.757 218.487 129.254C218.253 129.48 217.924 129.666 217.499 129.813C217.075 129.952 216.572 130.021 215.991 130.021C215.593 130.021 215.146 129.974 214.652 129.878C214.158 129.783 213.725 129.631 213.352 129.423L213.989 127.772C214.31 127.92 214.618 128.028 214.912 128.097C215.216 128.158 215.489 128.188 215.731 128.188ZM220.324 130.008L220.454 128.188C220.784 128.188 221.044 128.158 221.234 128.097C221.434 128.037 221.59 127.915 221.702 127.733C221.824 127.543 221.923 127.265 222.001 126.901C222.088 126.537 222.175 126.052 222.261 125.445L223.964 125.731C223.93 125.931 223.891 126.169 223.847 126.446C223.804 126.724 223.782 126.979 223.782 127.213C223.782 127.421 223.826 127.599 223.912 127.746C224.008 127.894 224.172 128.006 224.406 128.084C224.649 128.154 224.996 128.188 225.446 128.188C225.776 128.188 226.01 128.275 226.148 128.448C226.287 128.613 226.356 128.821 226.356 129.072C226.356 129.341 226.265 129.566 226.083 129.748C225.91 129.922 225.654 130.008 225.316 130.008C224.623 130.008 224.081 129.935 223.691 129.787C223.31 129.64 223.037 129.376 222.872 128.994C222.552 129.445 222.17 129.727 221.728 129.839C221.295 129.952 220.827 130.008 220.324 130.008ZM222.638 132.998C222.387 132.998 222.17 132.912 221.988 132.738C221.815 132.565 221.728 132.353 221.728 132.101C221.728 131.85 221.815 131.629 221.988 131.438C222.17 131.256 222.387 131.165 222.638 131.165C222.881 131.165 223.093 131.256 223.275 131.438C223.457 131.629 223.548 131.85 223.548 132.101C223.548 132.353 223.457 132.565 223.275 132.738C223.093 132.912 222.881 132.998 222.638 132.998ZM225.313 130.008L225.443 128.188C225.851 128.188 226.163 128.184 226.379 128.175C226.605 128.167 226.774 128.158 226.886 128.149C226.999 128.132 227.094 128.119 227.172 128.11C227.077 128.024 226.96 127.898 226.821 127.733C226.691 127.569 226.57 127.356 226.457 127.096C226.353 126.836 226.301 126.524 226.301 126.16C226.301 125.632 226.436 125.168 226.704 124.769C226.982 124.371 227.354 124.059 227.822 123.833C228.29 123.608 228.815 123.495 229.395 123.495C229.915 123.495 230.414 123.565 230.89 123.703L230.604 125.432C230.431 125.389 230.245 125.354 230.045 125.328C229.855 125.302 229.69 125.289 229.551 125.289C229.118 125.289 228.771 125.389 228.511 125.588C228.26 125.788 228.134 126.052 228.134 126.381C228.134 126.633 228.204 126.854 228.342 127.044C228.49 127.226 228.654 127.374 228.836 127.486C229.018 127.599 229.166 127.673 229.278 127.707C229.564 127.621 229.807 127.551 230.006 127.499C230.206 127.439 230.414 127.369 230.63 127.291C230.847 127.205 231.133 127.083 231.488 126.927L232.073 128.643C231.345 128.999 230.635 129.276 229.941 129.475C229.248 129.675 228.529 129.813 227.783 129.891C227.038 129.969 226.215 130.008 225.313 130.008ZM236.303 129.579C236.303 129.285 236.342 128.908 236.42 128.448C236.507 127.989 236.693 127.443 236.979 126.81L238.578 127.369C238.431 127.777 238.318 128.128 238.24 128.422C238.162 128.708 238.123 128.99 238.123 129.267C238.123 129.796 238.348 130.238 238.799 130.593C239.258 130.949 239.926 131.126 240.801 131.126C241.468 131.126 242.032 131.048 242.491 130.892C242.959 130.736 243.314 130.55 243.557 130.333C243.8 130.125 243.921 129.935 243.921 129.761C243.921 129.64 243.817 129.532 243.609 129.436C243.41 129.341 243.158 129.241 242.855 129.137C242.56 129.033 242.266 128.903 241.971 128.747C241.676 128.591 241.425 128.392 241.217 128.149C241.018 127.898 240.918 127.577 240.918 127.187C240.918 126.858 241.005 126.498 241.178 126.108C241.351 125.71 241.598 125.333 241.919 124.977C242.24 124.613 242.621 124.319 243.063 124.093C243.514 123.859 244.008 123.742 244.545 123.742C244.926 123.742 245.273 123.803 245.585 123.924C245.897 124.046 246.166 124.184 246.391 124.34L245.715 125.861C245.325 125.61 244.931 125.484 244.532 125.484C244.211 125.484 243.912 125.567 243.635 125.731C243.358 125.887 243.132 126.082 242.959 126.316C242.794 126.55 242.712 126.771 242.712 126.979C242.712 127.135 242.786 127.274 242.933 127.395C243.089 127.508 243.288 127.616 243.531 127.72C243.774 127.816 244.029 127.915 244.298 128.019C244.567 128.123 244.822 128.24 245.065 128.37C245.308 128.5 245.503 128.656 245.65 128.838C245.806 129.02 245.884 129.241 245.884 129.501C245.884 129.883 245.767 130.273 245.533 130.671C245.308 131.07 244.97 131.443 244.519 131.789C244.068 132.136 243.514 132.413 242.855 132.621C242.205 132.838 241.451 132.946 240.593 132.946C239.761 132.946 239.02 132.821 238.37 132.569C237.729 132.318 237.222 131.941 236.849 131.438C236.485 130.944 236.303 130.325 236.303 129.579ZM241.776 135.962C241.525 135.962 241.308 135.876 241.126 135.702C240.953 135.529 240.866 135.317 240.866 135.065C240.866 134.814 240.953 134.597 241.126 134.415C241.308 134.233 241.525 134.142 241.776 134.142C242.019 134.142 242.227 134.233 242.4 134.415C242.573 134.597 242.66 134.814 242.66 135.065C242.66 135.317 242.573 135.529 242.4 135.702C242.227 135.876 242.019 135.962 241.776 135.962ZM239.527 135.962C239.276 135.962 239.059 135.876 238.877 135.702C238.704 135.529 238.617 135.317 238.617 135.065C238.617 134.814 238.704 134.597 238.877 134.415C239.059 134.233 239.276 134.142 239.527 134.142C239.77 134.142 239.978 134.233 240.151 134.415C240.324 134.597 240.411 134.814 240.411 135.065C240.411 135.317 240.324 135.529 240.151 135.702C239.978 135.876 239.77 135.962 239.527 135.962ZM247.097 129.423L247.734 127.772C248.349 128.05 248.951 128.188 249.541 128.188C250.459 128.188 250.919 127.941 250.919 127.447C250.919 127.3 250.871 127.096 250.776 126.836C250.689 126.576 250.529 126.238 250.295 125.822C250.061 125.398 249.718 124.873 249.268 124.249L250.815 123.222C251.43 124.115 251.924 124.96 252.297 125.757C252.669 126.555 252.856 127.226 252.856 127.772C252.856 128.44 252.587 128.981 252.05 129.397C251.521 129.813 250.75 130.021 249.736 130.021C249.484 130.021 249.198 130 248.878 129.956C248.566 129.913 248.254 129.848 247.942 129.761C247.63 129.675 247.348 129.562 247.097 129.423ZM254.397 129.943L254.124 120.427H255.944L256.217 129.943H254.397ZM256.79 132.946L256.127 131.334C256.742 131.118 257.288 130.862 257.765 130.567C258.242 130.281 258.614 129.952 258.883 129.579C259.16 129.198 259.299 128.773 259.299 128.305C259.299 127.941 259.217 127.543 259.052 127.109C258.887 126.676 258.688 126.234 258.454 125.783L260.157 124.964C260.304 125.233 260.439 125.523 260.56 125.835C260.681 126.139 260.781 126.412 260.859 126.654C260.937 126.897 260.989 127.062 261.015 127.148C261.136 127.564 261.301 127.842 261.509 127.98C261.726 128.119 262.072 128.188 262.549 128.188C262.87 128.188 263.104 128.275 263.251 128.448C263.398 128.613 263.472 128.821 263.472 129.072C263.472 129.341 263.381 129.566 263.199 129.748C263.017 129.922 262.757 130.008 262.419 130.008C261.76 130.008 261.258 129.831 260.911 129.475C260.764 130.013 260.482 130.507 260.066 130.957C259.659 131.417 259.169 131.815 258.597 132.153C258.025 132.491 257.423 132.756 256.79 132.946ZM262.435 130.008L262.565 128.188C262.755 128.188 262.924 128.141 263.072 128.045C263.219 127.941 263.371 127.772 263.527 127.538C263.683 127.304 263.865 126.979 264.073 126.563C264.463 125.783 264.874 125.25 265.308 124.964C265.75 124.67 266.2 124.522 266.66 124.522C267.171 124.522 267.63 124.665 268.038 124.951C268.445 125.237 268.766 125.61 269 126.069C269.234 126.52 269.351 127.001 269.351 127.512C269.351 127.972 269.251 128.388 269.052 128.76C268.861 129.124 268.592 129.415 268.246 129.631C267.908 129.839 267.518 129.943 267.076 129.943C266.746 129.943 266.369 129.896 265.945 129.8C265.52 129.705 265.074 129.506 264.606 129.202C264.337 129.506 264.038 129.718 263.709 129.839C263.379 129.952 262.955 130.008 262.435 130.008ZM266.608 126.342C266.356 126.342 266.157 126.468 266.01 126.719C265.862 126.971 265.689 127.304 265.49 127.72C265.758 127.859 266.005 127.963 266.231 128.032C266.465 128.093 266.664 128.123 266.829 128.123C267.089 128.123 267.279 128.084 267.401 128.006C267.522 127.928 267.583 127.79 267.583 127.59C267.583 127.408 267.539 127.222 267.453 127.031C267.366 126.841 267.249 126.68 267.102 126.55C266.954 126.412 266.79 126.342 266.608 126.342ZM273.871 129.423L274.508 127.772C275.123 128.05 275.726 128.188 276.315 128.188C277.234 128.188 277.693 127.941 277.693 127.447C277.693 127.3 277.645 127.096 277.55 126.836C277.463 126.576 277.303 126.238 277.069 125.822C276.835 125.398 276.493 124.873 276.042 124.249L277.589 123.222C278.204 124.115 278.698 124.96 279.071 125.757C279.444 126.555 279.63 127.226 279.63 127.772C279.63 128.44 279.361 128.981 278.824 129.397C278.295 129.813 277.524 130.021 276.51 130.021C276.259 130.021 275.973 130 275.652 129.956C275.34 129.913 275.028 129.848 274.716 129.761C274.404 129.675 274.122 129.562 273.871 129.423ZM276.328 122.234C276.059 122.234 275.83 122.143 275.639 121.961C275.457 121.779 275.366 121.554 275.366 121.285C275.366 121.017 275.457 120.787 275.639 120.596C275.83 120.406 276.059 120.31 276.328 120.31C276.588 120.31 276.809 120.406 276.991 120.596C277.182 120.787 277.277 121.017 277.277 121.285C277.277 121.554 277.182 121.779 276.991 121.961C276.809 122.143 276.588 122.234 276.328 122.234ZM284.253 130.008C283.447 130.008 282.823 129.926 282.381 129.761C281.948 129.597 281.64 129.341 281.458 128.994C281.285 128.639 281.189 128.193 281.172 127.655L280.899 120.427H282.719L282.992 126.784C283.009 127.183 283.053 127.482 283.122 127.681C283.191 127.881 283.321 128.015 283.512 128.084C283.703 128.154 283.993 128.188 284.383 128.188C284.704 128.188 284.938 128.275 285.085 128.448C285.232 128.613 285.306 128.821 285.306 129.072C285.306 129.341 285.215 129.566 285.033 129.748C284.851 129.922 284.591 130.008 284.253 130.008ZM284.271 130.008L284.401 128.188C284.713 128.188 284.981 128.158 285.207 128.097C285.432 128.037 285.623 127.915 285.779 127.733C285.935 127.543 286.065 127.265 286.169 126.901C286.281 126.537 286.381 126.052 286.468 125.445L288.171 125.731C288.136 125.931 288.097 126.169 288.054 126.446C288.01 126.724 287.989 126.979 287.989 127.213C287.989 127.525 288.119 127.768 288.379 127.941C288.639 128.106 289.085 128.188 289.718 128.188C290.038 128.188 290.268 128.275 290.407 128.448C290.554 128.613 290.628 128.821 290.628 129.072C290.628 129.341 290.537 129.566 290.355 129.748C290.181 129.922 289.926 130.008 289.588 130.008C288.981 130.008 288.461 129.93 288.028 129.774C287.603 129.618 287.291 129.341 287.092 128.942C286.858 129.254 286.58 129.488 286.26 129.644C285.948 129.792 285.618 129.891 285.272 129.943C284.934 129.987 284.6 130.008 284.271 130.008ZM286.195 124.262C285.943 124.262 285.727 124.176 285.545 124.002C285.371 123.82 285.285 123.608 285.285 123.365C285.285 123.114 285.371 122.897 285.545 122.715C285.727 122.533 285.943 122.442 286.195 122.442C286.437 122.442 286.645 122.533 286.819 122.715C286.992 122.897 287.079 123.114 287.079 123.365C287.079 123.608 286.992 123.82 286.819 124.002C286.645 124.176 286.437 124.262 286.195 124.262ZM288.444 124.275C288.192 124.275 287.976 124.189 287.794 124.015C287.62 123.842 287.534 123.63 287.534 123.378C287.534 123.127 287.62 122.91 287.794 122.728C287.976 122.546 288.192 122.455 288.444 122.455C288.686 122.455 288.894 122.546 289.068 122.728C289.241 122.91 289.328 123.127 289.328 123.378C289.328 123.63 289.241 123.842 289.068 124.015C288.894 124.189 288.686 124.275 288.444 124.275ZM289.59 130.008L289.72 128.188C290.006 128.188 290.24 128.167 290.422 128.123C290.604 128.071 290.751 127.963 290.864 127.798C290.985 127.625 291.089 127.369 291.176 127.031C291.271 126.685 291.375 126.217 291.488 125.627L293.178 125.939C293.143 126.13 293.096 126.368 293.035 126.654C292.983 126.94 292.957 127.187 292.957 127.395C292.957 127.638 293.035 127.833 293.191 127.98C293.347 128.119 293.642 128.188 294.075 128.188C294.292 128.188 294.478 128.167 294.634 128.123C294.799 128.071 294.937 127.963 295.05 127.798C295.171 127.625 295.275 127.361 295.362 127.005C295.457 126.641 295.548 126.152 295.635 125.536L297.351 125.809C297.299 126.113 297.247 126.433 297.195 126.771C297.143 127.109 297.117 127.365 297.117 127.538C297.117 127.703 297.195 127.855 297.351 127.993C297.516 128.123 297.845 128.188 298.339 128.188C298.686 128.188 298.959 128.119 299.158 127.98C299.366 127.842 299.47 127.599 299.47 127.252C299.47 126.932 299.396 126.511 299.249 125.991C299.102 125.471 298.928 124.925 298.729 124.353L300.562 123.807C300.701 124.18 300.822 124.579 300.926 125.003C301.039 125.419 301.125 125.827 301.186 126.225C301.255 126.624 301.29 126.966 301.29 127.252C301.29 128.145 301.026 128.83 300.497 129.306C299.977 129.774 299.297 130.008 298.456 130.008C297.849 130.008 297.377 129.939 297.039 129.8C296.701 129.653 296.458 129.393 296.311 129.02C296.138 129.324 295.947 129.545 295.739 129.683C295.54 129.822 295.301 129.909 295.024 129.943C294.747 129.987 294.417 130.008 294.036 130.008C293.802 130.008 293.568 129.987 293.334 129.943C293.1 129.909 292.875 129.831 292.658 129.709C292.45 129.579 292.268 129.376 292.112 129.098C291.817 129.497 291.458 129.748 291.033 129.852C290.608 129.956 290.127 130.008 289.59 130.008ZM307.064 122.975C307.064 122.542 307.03 122.117 306.96 121.701C306.9 121.277 306.843 120.921 306.791 120.635L308.611 120.375C308.637 120.549 308.668 120.778 308.702 121.064C308.746 121.35 308.78 121.654 308.806 121.974C308.832 122.286 308.845 122.585 308.845 122.871C308.845 123.903 308.633 124.813 308.208 125.601C308.711 126.13 309.045 126.594 309.209 126.992C309.383 127.391 309.469 127.738 309.469 128.032C309.469 128.37 309.396 128.687 309.248 128.981C309.11 129.267 308.88 129.501 308.559 129.683C308.239 129.857 307.81 129.943 307.272 129.943H303.45V128.201C304.594 127.378 305.452 126.598 306.024 125.861C305.556 125.48 305.019 125.073 304.412 124.639C303.806 124.206 303.156 123.773 302.462 123.339L303.411 121.948C304.139 122.399 304.785 122.824 305.348 123.222C305.92 123.621 306.419 123.998 306.843 124.353C306.991 123.92 307.064 123.461 307.064 122.975ZM305.79 128.188H306.635C307.077 128.188 307.368 128.149 307.506 128.071C307.645 127.993 307.714 127.889 307.714 127.759C307.714 127.586 307.55 127.322 307.22 126.966C306.83 127.382 306.354 127.79 305.79 128.188ZM302.683 121.753L302.462 120.843C302.74 120.791 302.961 120.748 303.125 120.713C302.969 120.601 302.835 120.453 302.722 120.271C302.61 120.089 302.553 119.89 302.553 119.673C302.553 119.361 302.623 119.11 302.761 118.919C302.9 118.729 303.078 118.59 303.294 118.503C303.511 118.417 303.736 118.373 303.97 118.373C304.222 118.373 304.451 118.408 304.659 118.477L304.555 119.413C304.469 119.396 304.382 119.379 304.295 119.361C304.209 119.344 304.113 119.335 304.009 119.335C303.888 119.335 303.784 119.374 303.697 119.452C303.611 119.522 303.567 119.608 303.567 119.712C303.567 119.886 303.637 120.037 303.775 120.167C303.923 120.289 304.07 120.375 304.217 120.427C304.495 120.349 304.75 120.263 304.984 120.167L305.244 121.038C304.915 121.16 304.512 121.29 304.035 121.428C303.567 121.558 303.117 121.667 302.683 121.753ZM311.59 129.943L311.317 120.427H313.137L313.41 129.943H311.59Z" fill="#6C71A1"/>
<path d="M177.245 165.184C177.245 164.844 177.29 164.409 177.38 163.879C177.48 163.349 177.695 162.719 178.025 161.989L179.87 162.634C179.7 163.104 179.57 163.509 179.48 163.849C179.39 164.179 179.345 164.504 179.345 164.824C179.345 165.504 179.59 166.044 180.08 166.444C180.57 166.854 181.205 167.059 181.985 167.059C182.835 167.059 183.485 166.919 183.935 166.639C184.395 166.369 184.705 165.939 184.865 165.349C185.025 164.759 185.09 163.984 185.06 163.024L184.76 154.624H186.875L187.1 161.719C187.11 162.229 187.175 162.619 187.295 162.889C187.425 163.149 187.615 163.329 187.865 163.429C188.125 163.529 188.46 163.579 188.87 163.579C189.24 163.579 189.505 163.679 189.665 163.879C189.835 164.069 189.92 164.309 189.92 164.599C189.92 164.909 189.815 165.169 189.605 165.379C189.395 165.579 189.1 165.679 188.72 165.679C188.46 165.679 188.175 165.639 187.865 165.559C187.565 165.469 187.29 165.329 187.04 165.139C186.81 166.569 186.26 167.579 185.39 168.169C184.52 168.769 183.365 169.069 181.925 169.069C181.075 169.069 180.295 168.924 179.585 168.634C178.875 168.354 178.305 167.929 177.875 167.359C177.455 166.789 177.245 166.064 177.245 165.184ZM188.721 165.679L188.871 163.579C189.251 163.579 189.551 163.544 189.771 163.474C190.001 163.404 190.181 163.264 190.311 163.054C190.451 162.834 190.566 162.514 190.656 162.094C190.756 161.674 190.856 161.114 190.956 160.414L192.921 160.744C192.881 160.974 192.836 161.249 192.786 161.569C192.736 161.889 192.711 162.184 192.711 162.454C192.711 162.694 192.761 162.899 192.861 163.069C192.971 163.239 193.161 163.369 193.431 163.459C193.711 163.539 194.111 163.579 194.631 163.579C195.011 163.579 195.281 163.679 195.441 163.879C195.601 164.069 195.681 164.309 195.681 164.599C195.681 164.909 195.576 165.169 195.366 165.379C195.166 165.579 194.871 165.679 194.481 165.679C193.681 165.679 193.056 165.594 192.606 165.424C192.166 165.254 191.851 164.949 191.661 164.509C191.291 165.029 190.851 165.354 190.341 165.484C189.841 165.614 189.301 165.679 188.721 165.679ZM191.391 169.129C191.101 169.129 190.851 169.029 190.641 168.829C190.441 168.629 190.341 168.384 190.341 168.094C190.341 167.804 190.441 167.549 190.641 167.329C190.851 167.119 191.101 167.014 191.391 167.014C191.671 167.014 191.916 167.119 192.126 167.329C192.336 167.549 192.441 167.804 192.441 168.094C192.441 168.384 192.336 168.629 192.126 168.829C191.916 169.029 191.671 169.129 191.391 169.129ZM194.478 165.679L194.628 163.594C195.448 163.594 196.113 163.589 196.623 163.579C197.133 163.569 197.528 163.549 197.808 163.519C198.098 163.479 198.313 163.434 198.453 163.384C198.593 163.324 198.713 163.259 198.813 163.189C198.893 163.129 198.963 163.054 199.023 162.964C199.093 162.874 199.153 162.764 199.203 162.634C198.793 162.784 198.368 162.859 197.928 162.859C197.128 162.859 196.498 162.694 196.038 162.364C195.578 162.024 195.348 161.429 195.348 160.579C195.348 160.139 195.423 159.704 195.573 159.274C195.723 158.834 195.938 158.439 196.218 158.089C196.498 157.729 196.828 157.444 197.208 157.234C197.588 157.014 198.008 156.904 198.468 156.904C199.148 156.904 199.708 157.104 200.148 157.504C200.598 157.894 200.928 158.424 201.138 159.094C201.358 159.754 201.468 160.489 201.468 161.299C201.468 162.009 201.363 162.629 201.153 163.159C200.943 163.679 200.693 164.089 200.403 164.389C200.163 164.639 199.888 164.849 199.578 165.019C199.268 165.189 198.888 165.324 198.438 165.424C197.998 165.514 197.453 165.579 196.803 165.619C196.163 165.659 195.388 165.679 194.478 165.679ZM197.418 160.174C197.418 160.604 197.753 160.819 198.423 160.819C198.743 160.819 199.063 160.769 199.383 160.669C199.333 160.119 199.218 159.699 199.038 159.409C198.858 159.119 198.628 158.974 198.348 158.974C198.108 158.974 197.893 159.089 197.703 159.319C197.513 159.549 197.418 159.834 197.418 160.174ZM197.148 155.524C196.858 155.524 196.608 155.424 196.398 155.224C196.198 155.014 196.098 154.769 196.098 154.489C196.098 154.199 196.198 153.949 196.398 153.739C196.608 153.529 196.858 153.424 197.148 153.424C197.428 153.424 197.668 153.529 197.868 153.739C198.068 153.949 198.168 154.199 198.168 154.489C198.168 154.769 198.068 155.014 197.868 155.224C197.668 155.424 197.428 155.524 197.148 155.524ZM199.743 155.539C199.453 155.539 199.203 155.439 198.993 155.239C198.793 155.039 198.693 154.794 198.693 154.504C198.693 154.214 198.793 153.964 198.993 153.754C199.203 153.544 199.453 153.439 199.743 153.439C200.023 153.439 200.263 153.544 200.463 153.754C200.663 153.964 200.763 154.214 200.763 154.504C200.763 154.794 200.663 155.039 200.463 155.239C200.263 155.439 200.023 155.539 199.743 155.539ZM206.484 165.184C206.484 164.844 206.529 164.409 206.619 163.879C206.719 163.349 206.934 162.719 207.264 161.989L209.109 162.634C208.939 163.104 208.809 163.509 208.719 163.849C208.629 164.179 208.584 164.504 208.584 164.824C208.584 165.504 208.814 166.029 209.274 166.399C209.734 166.779 210.409 166.969 211.299 166.969C212.099 166.969 212.724 166.854 213.174 166.624C213.624 166.394 213.939 166.084 214.119 165.694C214.299 165.314 214.389 164.884 214.389 164.404C214.389 163.994 214.314 163.499 214.164 162.919C214.024 162.339 213.839 161.699 213.609 160.999L215.709 160.459C215.849 161.039 215.959 161.489 216.039 161.809C216.129 162.129 216.199 162.369 216.249 162.529C216.399 162.979 216.634 163.269 216.954 163.399C217.274 163.519 217.729 163.579 218.319 163.579C218.689 163.579 218.954 163.679 219.114 163.879C219.284 164.069 219.369 164.309 219.369 164.599C219.369 164.909 219.264 165.169 219.054 165.379C218.844 165.579 218.549 165.679 218.169 165.679C217.839 165.679 217.514 165.639 217.194 165.559C216.874 165.469 216.599 165.324 216.369 165.124C216.239 166.374 215.719 167.344 214.809 168.034C213.909 168.724 212.719 169.069 211.239 169.069C210.349 169.069 209.544 168.934 208.824 168.664C208.104 168.404 207.534 167.989 207.114 167.419C206.694 166.849 206.484 166.104 206.484 165.184ZM211.374 159.484C211.064 159.484 210.799 159.379 210.579 159.169C210.369 158.959 210.264 158.699 210.264 158.389C210.264 158.079 210.369 157.814 210.579 157.594C210.799 157.374 211.064 157.264 211.374 157.264C211.674 157.264 211.929 157.374 212.139 157.594C212.359 157.814 212.469 158.079 212.469 158.389C212.469 158.699 212.359 158.959 212.139 159.169C211.929 159.379 211.674 159.484 211.374 159.484ZM218.164 165.679L218.314 163.579C218.534 163.579 218.729 163.524 218.899 163.414C219.069 163.294 219.244 163.099 219.424 162.829C219.604 162.559 219.814 162.184 220.054 161.704C220.504 160.804 220.979 160.189 221.479 159.859C221.989 159.519 222.509 159.349 223.039 159.349C223.629 159.349 224.159 159.514 224.629 159.844C225.099 160.174 225.469 160.604 225.739 161.134C226.009 161.654 226.144 162.209 226.144 162.799C226.144 163.329 226.029 163.809 225.799 164.239C225.579 164.659 225.269 164.994 224.869 165.244C224.479 165.484 224.029 165.604 223.519 165.604C223.139 165.604 222.704 165.549 222.214 165.439C221.724 165.329 221.209 165.099 220.669 164.749C220.359 165.099 220.014 165.344 219.634 165.484C219.254 165.614 218.764 165.679 218.164 165.679ZM222.979 161.449C222.689 161.449 222.459 161.594 222.289 161.884C222.119 162.174 221.919 162.559 221.689 163.039C221.999 163.199 222.284 163.319 222.544 163.399C222.814 163.469 223.044 163.504 223.234 163.504C223.534 163.504 223.754 163.459 223.894 163.369C224.034 163.279 224.104 163.119 224.104 162.889C224.104 162.679 224.054 162.464 223.954 162.244C223.854 162.024 223.719 161.839 223.549 161.689C223.379 161.529 223.189 161.449 222.979 161.449ZM235.693 165.679C234.763 165.679 234.043 165.584 233.533 165.394C233.033 165.204 232.678 164.909 232.468 164.509C232.268 164.099 232.158 163.584 232.138 162.964L231.823 154.624H233.923L234.238 161.959C234.258 162.419 234.308 162.764 234.388 162.994C234.468 163.224 234.618 163.379 234.838 163.459C235.058 163.539 235.393 163.579 235.843 163.579C236.213 163.579 236.483 163.679 236.653 163.879C236.823 164.069 236.908 164.309 236.908 164.599C236.908 164.909 236.803 165.169 236.593 165.379C236.383 165.579 236.083 165.679 235.693 165.679ZM235.713 165.679L235.863 163.579C236.103 163.579 236.288 163.529 236.418 163.429C236.558 163.329 236.693 163.159 236.823 162.919C236.953 162.669 237.133 162.324 237.363 161.884C237.863 160.934 238.393 160.274 238.953 159.904C239.523 159.534 240.073 159.349 240.603 159.349C241.153 159.349 241.658 159.534 242.118 159.904C242.588 160.264 243.028 160.934 243.438 161.914C243.728 162.594 244.018 163.044 244.308 163.264C244.598 163.474 244.903 163.579 245.223 163.579C245.603 163.579 245.873 163.679 246.033 163.879C246.193 164.069 246.273 164.309 246.273 164.599C246.273 164.909 246.168 165.169 245.958 165.379C245.748 165.579 245.453 165.679 245.073 165.679C244.633 165.679 244.228 165.614 243.858 165.484C243.488 165.354 243.183 165.164 242.943 164.914C242.773 165.164 242.538 165.389 242.238 165.589C241.948 165.779 241.593 165.874 241.173 165.874C240.923 165.874 240.628 165.824 240.288 165.724C239.958 165.634 239.613 165.479 239.253 165.259C238.903 165.029 238.578 164.719 238.278 164.329C237.988 164.859 237.653 165.219 237.273 165.409C236.893 165.589 236.373 165.679 235.713 165.679ZM239.148 162.559C239.338 162.869 239.613 163.154 239.973 163.414C240.333 163.664 240.708 163.789 241.098 163.789C241.298 163.789 241.463 163.714 241.593 163.564C241.723 163.404 241.728 163.169 241.608 162.859C241.538 162.689 241.438 162.489 241.308 162.259C241.188 162.029 241.048 161.834 240.888 161.674C240.738 161.504 240.573 161.419 240.393 161.419C240.193 161.419 239.988 161.509 239.778 161.689C239.568 161.869 239.358 162.159 239.148 162.559ZM245.073 165.679L245.223 163.579H246.213C246.313 162.559 246.548 161.664 246.918 160.894C247.298 160.124 247.758 159.524 248.298 159.094C248.848 158.654 249.428 158.434 250.038 158.434C250.408 158.434 250.763 158.544 251.103 158.764C251.453 158.974 251.738 159.284 251.958 159.694C252.178 160.104 252.288 160.604 252.288 161.194C252.288 161.504 252.223 161.859 252.093 162.259C251.973 162.649 251.758 163.014 251.448 163.354C251.818 163.434 252.198 163.494 252.588 163.534C252.988 163.564 253.383 163.579 253.773 163.579C254.153 163.579 254.423 163.679 254.583 163.879C254.753 164.069 254.838 164.309 254.838 164.599C254.838 164.909 254.733 165.169 254.523 165.379C254.313 165.579 254.013 165.679 253.623 165.679C253.383 165.679 253.113 165.669 252.813 165.649C252.943 165.999 252.988 166.364 252.948 166.744C252.918 167.124 252.793 167.474 252.573 167.794C252.363 168.124 252.053 168.389 251.643 168.589C251.233 168.799 250.723 168.904 250.113 168.904C249.483 168.904 248.898 168.784 248.358 168.544C247.818 168.314 247.363 167.954 246.993 167.464C246.623 166.974 246.373 166.349 246.243 165.589C245.783 165.649 245.393 165.679 245.073 165.679ZM249.843 160.504C249.663 160.504 249.463 160.629 249.243 160.879C249.033 161.119 248.838 161.464 248.658 161.914C248.488 162.364 248.373 162.889 248.313 163.489C248.933 163.389 249.408 163.179 249.738 162.859C250.078 162.539 250.248 162.094 250.248 161.524C250.248 161.284 250.213 161.054 250.143 160.834C250.083 160.614 249.983 160.504 249.843 160.504ZM250.053 166.834C250.353 166.834 250.573 166.764 250.713 166.624C250.863 166.484 250.938 166.304 250.938 166.084C250.938 165.964 250.898 165.829 250.818 165.679C250.738 165.529 250.588 165.399 250.368 165.289C250.148 165.169 249.833 165.109 249.423 165.109C249.273 165.109 249.108 165.119 248.928 165.139C248.748 165.159 248.558 165.189 248.358 165.229C248.478 165.829 248.698 166.244 249.018 166.474C249.348 166.714 249.693 166.834 250.053 166.834ZM253.643 165.679L253.793 163.594C254.093 163.604 254.373 163.604 254.633 163.594C254.903 163.574 255.153 163.554 255.383 163.534C255.163 163.274 254.978 162.984 254.828 162.664C254.688 162.334 254.618 161.964 254.618 161.554C254.618 160.934 254.773 160.394 255.083 159.934C255.393 159.464 255.783 159.099 256.253 158.839C256.733 158.579 257.223 158.449 257.723 158.449C258.323 158.449 258.843 158.589 259.283 158.869C259.723 159.149 260.063 159.519 260.303 159.979C260.553 160.429 260.678 160.914 260.678 161.434C260.678 161.854 260.608 162.239 260.468 162.589C260.328 162.939 260.143 163.249 259.913 163.519C260.213 163.539 260.513 163.554 260.813 163.564C261.123 163.574 261.423 163.579 261.713 163.579C262.093 163.579 262.363 163.679 262.523 163.879C262.693 164.069 262.778 164.309 262.778 164.599C262.778 164.909 262.673 165.169 262.463 165.379C262.253 165.579 261.953 165.679 261.563 165.679C260.823 165.679 260.103 165.629 259.403 165.529C258.703 165.429 258.093 165.284 257.573 165.094C257.203 165.254 256.673 165.394 255.983 165.514C255.293 165.634 254.513 165.689 253.643 165.679ZM256.688 161.704C256.688 161.954 256.758 162.189 256.898 162.409C257.038 162.629 257.233 162.834 257.483 163.024C257.843 162.864 258.118 162.664 258.308 162.424C258.508 162.184 258.608 161.924 258.608 161.644C258.608 161.374 258.523 161.109 258.353 160.849C258.193 160.589 257.968 160.459 257.678 160.459C257.398 160.459 257.163 160.579 256.973 160.819C256.783 161.059 256.688 161.354 256.688 161.704ZM257.738 157.054C257.428 157.054 257.163 156.949 256.943 156.739C256.733 156.529 256.628 156.269 256.628 155.959C256.628 155.649 256.733 155.384 256.943 155.164C257.163 154.944 257.428 154.834 257.738 154.834C258.038 154.834 258.293 154.944 258.503 155.164C258.723 155.384 258.833 155.649 258.833 155.959C258.833 156.269 258.723 156.529 258.503 156.739C258.293 156.949 258.038 157.054 257.738 157.054ZM261.582 165.679L261.732 163.579C262.332 163.579 262.792 163.549 263.112 163.489C263.432 163.429 263.652 163.319 263.772 163.159C263.902 162.989 263.967 162.749 263.967 162.439C263.967 162.159 263.927 161.824 263.847 161.434C263.777 161.044 263.682 160.644 263.562 160.234C263.442 159.814 263.322 159.424 263.202 159.064L265.272 158.494C265.392 158.834 265.512 159.229 265.632 159.679C265.762 160.129 265.867 160.594 265.947 161.074C266.027 161.554 266.067 162.009 266.067 162.439C266.067 163.119 265.957 163.674 265.737 164.104C265.517 164.524 265.207 164.849 264.807 165.079C264.417 165.309 263.947 165.469 263.397 165.559C262.847 165.639 262.242 165.679 261.582 165.679ZM263.052 157.264C262.762 157.264 262.512 157.164 262.302 156.964C262.102 156.754 262.002 156.509 262.002 156.229C262.002 155.939 262.102 155.689 262.302 155.479C262.512 155.269 262.762 155.164 263.052 155.164C263.332 155.164 263.572 155.269 263.772 155.479C263.972 155.689 264.072 155.939 264.072 156.229C264.072 156.509 263.972 156.754 263.772 156.964C263.572 157.164 263.332 157.264 263.052 157.264ZM265.647 157.279C265.357 157.279 265.107 157.179 264.897 156.979C264.697 156.779 264.597 156.534 264.597 156.244C264.597 155.954 264.697 155.704 264.897 155.494C265.107 155.284 265.357 155.179 265.647 155.179C265.927 155.179 266.167 155.284 266.367 155.494C266.567 155.704 266.667 155.954 266.667 156.244C266.667 156.534 266.567 156.779 266.367 156.979C266.167 157.179 265.927 157.279 265.647 157.279ZM276.289 171.499C275.949 170.269 275.694 169.144 275.524 168.124C275.364 167.104 275.284 166.289 275.284 165.679C275.284 164.789 275.424 163.999 275.704 163.309C275.994 162.609 276.364 162.009 276.814 161.509C277.274 160.999 277.764 160.579 278.284 160.249C278.814 159.919 279.324 159.674 279.814 159.514C280.314 159.354 280.739 159.274 281.089 159.274C281.449 159.274 281.744 159.369 281.974 159.559C282.214 159.749 282.424 160.024 282.604 160.384C282.794 160.734 282.994 161.159 283.204 161.659C283.434 162.209 283.644 162.619 283.834 162.889C284.024 163.159 284.219 163.344 284.419 163.444C284.619 163.534 284.844 163.579 285.094 163.579C285.474 163.579 285.749 163.679 285.919 163.879C286.089 164.069 286.174 164.309 286.174 164.599C286.174 164.909 286.069 165.169 285.859 165.379C285.649 165.579 285.344 165.679 284.944 165.679C284.504 165.679 284.114 165.614 283.774 165.484C283.434 165.344 283.129 165.149 282.859 164.899C282.699 165.189 282.484 165.424 282.214 165.604C281.954 165.784 281.609 165.874 281.179 165.874C279.899 165.874 278.754 165.219 277.744 163.909C277.624 164.199 277.534 164.509 277.474 164.839C277.414 165.159 277.384 165.474 277.384 165.784C277.384 166.204 277.429 166.719 277.519 167.329C277.619 167.939 277.739 168.564 277.879 169.204C278.029 169.844 278.179 170.424 278.329 170.944L276.289 171.499ZM281.149 163.759C281.429 163.759 281.629 163.699 281.749 163.579C281.869 163.449 281.884 163.269 281.794 163.039C281.584 162.509 281.399 162.104 281.239 161.824C281.079 161.544 280.904 161.404 280.714 161.404C280.554 161.404 280.354 161.464 280.114 161.584C279.884 161.694 279.664 161.824 279.454 161.974C279.244 162.124 279.099 162.254 279.019 162.364C279.289 162.784 279.614 163.124 279.994 163.384C280.384 163.634 280.769 163.759 281.149 163.759ZM284.976 165.679L285.126 163.579C285.586 163.579 285.916 163.534 286.116 163.444C286.316 163.344 286.436 163.164 286.476 162.904C286.516 162.634 286.526 162.244 286.506 161.734L286.236 154.624H288.351L288.651 161.884C288.671 162.464 288.646 162.989 288.576 163.459C288.516 163.919 288.361 164.314 288.111 164.644C287.871 164.974 287.496 165.229 286.986 165.409C286.486 165.589 285.816 165.679 284.976 165.679ZM302.27 165.679C301.34 165.679 300.62 165.584 300.11 165.394C299.61 165.204 299.255 164.909 299.045 164.509C298.845 164.099 298.735 163.584 298.715 162.964L298.4 154.624H300.5L300.815 161.959C300.835 162.419 300.885 162.764 300.965 162.994C301.045 163.224 301.195 163.379 301.415 163.459C301.635 163.539 301.97 163.579 302.42 163.579C302.79 163.579 303.06 163.679 303.23 163.879C303.4 164.069 303.485 164.309 303.485 164.599C303.485 164.909 303.38 165.169 303.17 165.379C302.96 165.579 302.66 165.679 302.27 165.679ZM302.29 165.679L302.44 163.579C302.68 163.579 302.865 163.529 302.995 163.429C303.135 163.329 303.27 163.159 303.4 162.919C303.53 162.669 303.71 162.324 303.94 161.884C304.44 160.934 304.97 160.274 305.53 159.904C306.1 159.534 306.65 159.349 307.18 159.349C307.73 159.349 308.235 159.534 308.695 159.904C309.165 160.264 309.605 160.934 310.015 161.914C310.305 162.594 310.595 163.044 310.885 163.264C311.175 163.474 311.48 163.579 311.8 163.579C312.18 163.579 312.45 163.679 312.61 163.879C312.77 164.069 312.85 164.309 312.85 164.599C312.85 164.909 312.745 165.169 312.535 165.379C312.325 165.579 312.03 165.679 311.65 165.679C311.21 165.679 310.805 165.614 310.435 165.484C310.065 165.354 309.76 165.164 309.52 164.914C309.35 165.164 309.115 165.389 308.815 165.589C308.525 165.779 308.17 165.874 307.75 165.874C307.5 165.874 307.205 165.824 306.865 165.724C306.535 165.634 306.19 165.479 305.83 165.259C305.48 165.029 305.155 164.719 304.855 164.329C304.565 164.859 304.23 165.219 303.85 165.409C303.47 165.589 302.95 165.679 302.29 165.679ZM305.725 162.559C305.915 162.869 306.19 163.154 306.55 163.414C306.91 163.664 307.285 163.789 307.675 163.789C307.875 163.789 308.04 163.714 308.17 163.564C308.3 163.404 308.305 163.169 308.185 162.859C308.115 162.689 308.015 162.489 307.885 162.259C307.765 162.029 307.625 161.834 307.465 161.674C307.315 161.504 307.15 161.419 306.97 161.419C306.77 161.419 306.565 161.509 306.355 161.689C306.145 161.869 305.935 162.159 305.725 162.559ZM311.65 165.679L311.8 163.579H313.945C314.785 163.579 315.205 163.344 315.205 162.874C315.205 162.754 315.14 162.564 315.01 162.304C314.89 162.034 314.625 161.709 314.215 161.329C313.995 161.129 313.755 160.919 313.495 160.699C313.245 160.469 313.005 160.254 312.775 160.054C312.545 159.844 312.355 159.659 312.205 159.499C312.055 159.339 311.98 159.224 311.98 159.154C311.98 158.934 312 158.684 312.04 158.404C312.09 158.124 312.175 157.934 312.295 157.834C312.525 157.624 312.895 157.364 313.405 157.054C313.925 156.744 314.55 156.404 315.28 156.034C316.02 155.664 316.835 155.284 317.725 154.894L318.58 156.724C317.74 157.084 316.97 157.434 316.27 157.774C315.57 158.114 314.955 158.439 314.425 158.749C315.115 159.319 315.665 159.834 316.075 160.294C316.495 160.744 316.805 161.154 317.005 161.524C317.215 161.884 317.35 162.209 317.41 162.499C317.48 162.789 317.515 163.044 317.515 163.264C317.515 163.504 317.455 163.764 317.335 164.044C317.225 164.314 317.02 164.574 316.72 164.824C316.43 165.074 316.02 165.279 315.49 165.439C314.96 165.599 314.28 165.679 313.45 165.679H311.65ZM330.845 165.679C330.095 165.679 329.455 165.579 328.925 165.379C328.395 165.179 327.995 164.839 327.725 164.359C327.095 164.479 326.49 164.519 325.91 164.479C325.33 164.429 324.815 164.304 324.365 164.104C323.915 163.894 323.56 163.599 323.3 163.219C323.04 162.829 322.91 162.349 322.91 161.779C322.91 161.109 323.09 160.524 323.45 160.024C323.82 159.514 324.32 159.084 324.95 158.734C325.59 158.384 326.31 158.114 327.11 157.924L327.065 156.784H329.18L329.435 162.094C329.465 162.714 329.6 163.119 329.84 163.309C330.09 163.489 330.475 163.579 330.995 163.579C331.375 163.579 331.645 163.679 331.805 163.879C331.965 164.069 332.045 164.309 332.045 164.599C332.045 164.909 331.94 165.169 331.73 165.379C331.53 165.579 331.235 165.679 330.845 165.679ZM325.01 161.584C325.01 161.814 325.12 161.994 325.34 162.124C325.57 162.254 325.86 162.339 326.21 162.379C326.56 162.409 326.925 162.389 327.305 162.319L327.215 160.009C326.535 160.119 325.995 160.319 325.595 160.609C325.205 160.899 325.01 161.224 325.01 161.584ZM325.55 155.224C325.26 155.224 325.01 155.124 324.8 154.924C324.6 154.714 324.5 154.469 324.5 154.189C324.5 153.899 324.6 153.649 324.8 153.439C325.01 153.229 325.26 153.124 325.55 153.124C325.83 153.124 326.07 153.229 326.27 153.439C326.47 153.649 326.57 153.899 326.57 154.189C326.57 154.469 326.47 154.714 326.27 154.924C326.07 155.124 325.83 155.224 325.55 155.224ZM328.145 155.239C327.855 155.239 327.605 155.139 327.395 154.939C327.195 154.739 327.095 154.494 327.095 154.204C327.095 153.914 327.195 153.664 327.395 153.454C327.605 153.244 327.855 153.139 328.145 153.139C328.425 153.139 328.665 153.244 328.865 153.454C329.065 153.664 329.165 153.914 329.165 154.204C329.165 154.494 329.065 154.739 328.865 154.939C328.665 155.139 328.425 155.239 328.145 155.239ZM330.84 165.679L330.99 163.579C331.37 163.579 331.67 163.544 331.89 163.474C332.12 163.404 332.3 163.264 332.43 163.054C332.57 162.834 332.685 162.514 332.775 162.094C332.875 161.674 332.975 161.114 333.075 160.414L335.04 160.744C335 160.974 334.955 161.249 334.905 161.569C334.855 161.889 334.83 162.184 334.83 162.454C334.83 162.694 334.88 162.899 334.98 163.069C335.09 163.239 335.28 163.369 335.55 163.459C335.83 163.539 336.23 163.579 336.75 163.579C337.13 163.579 337.4 163.679 337.56 163.879C337.72 164.069 337.8 164.309 337.8 164.599C337.8 164.909 337.695 165.169 337.485 165.379C337.285 165.579 336.99 165.679 336.6 165.679C335.8 165.679 335.175 165.594 334.725 165.424C334.285 165.254 333.97 164.949 333.78 164.509C333.41 165.029 332.97 165.354 332.46 165.484C331.96 165.614 331.42 165.679 330.84 165.679ZM333.51 169.129C333.22 169.129 332.97 169.029 332.76 168.829C332.56 168.629 332.46 168.384 332.46 168.094C332.46 167.804 332.56 167.549 332.76 167.329C332.97 167.119 333.22 167.014 333.51 167.014C333.79 167.014 334.035 167.119 334.245 167.329C334.455 167.549 334.56 167.804 334.56 168.094C334.56 168.384 334.455 168.629 334.245 168.829C334.035 169.029 333.79 169.129 333.51 169.129ZM336.597 165.679L336.747 163.579H338.892C339.732 163.579 340.152 163.344 340.152 162.874C340.152 162.754 340.087 162.564 339.957 162.304C339.837 162.034 339.572 161.709 339.162 161.329C338.942 161.129 338.702 160.919 338.442 160.699C338.192 160.469 337.952 160.254 337.722 160.054C337.492 159.844 337.302 159.659 337.152 159.499C337.002 159.339 336.927 159.224 336.927 159.154C336.927 158.934 336.947 158.684 336.987 158.404C337.037 158.124 337.122 157.934 337.242 157.834C337.472 157.624 337.842 157.364 338.352 157.054C338.872 156.744 339.497 156.404 340.227 156.034C340.967 155.664 341.782 155.284 342.672 154.894L343.527 156.724C342.687 157.084 341.917 157.434 341.217 157.774C340.517 158.114 339.902 158.439 339.372 158.749C340.062 159.319 340.612 159.834 341.022 160.294C341.442 160.744 341.752 161.154 341.952 161.524C342.162 161.884 342.297 162.209 342.357 162.499C342.427 162.789 342.462 163.044 342.462 163.264C342.462 163.504 342.402 163.764 342.282 164.044C342.172 164.314 341.967 164.574 341.667 164.824C341.377 165.074 340.967 165.279 340.437 165.439C339.907 165.599 339.227 165.679 338.397 165.679H336.597ZM343.048 169.069L342.283 167.209C342.993 166.959 343.623 166.664 344.173 166.324C344.723 165.994 345.153 165.614 345.463 165.184C345.783 164.744 345.943 164.254 345.943 163.714C345.943 163.294 345.848 162.834 345.658 162.334C345.468 161.834 345.238 161.324 344.968 160.804L346.933 159.859C347.103 160.169 347.258 160.504 347.398 160.864C347.538 161.214 347.653 161.529 347.743 161.809C347.833 162.089 347.893 162.279 347.923 162.379C348.063 162.859 348.253 163.179 348.493 163.339C348.743 163.499 349.143 163.579 349.693 163.579C350.063 163.579 350.333 163.679 350.503 163.879C350.673 164.069 350.758 164.309 350.758 164.599C350.758 164.909 350.653 165.169 350.443 165.379C350.233 165.579 349.933 165.679 349.543 165.679C348.783 165.679 348.203 165.474 347.803 165.064C347.633 165.684 347.308 166.254 346.828 166.774C346.358 167.304 345.793 167.764 345.133 168.154C344.473 168.544 343.778 168.849 343.048 169.069ZM349.561 165.679L349.711 163.579C349.951 163.579 350.136 163.529 350.266 163.429C350.406 163.329 350.541 163.159 350.671 162.919C350.801 162.669 350.981 162.324 351.211 161.884C351.711 160.934 352.241 160.274 352.801 159.904C353.371 159.534 353.921 159.349 354.451 159.349C355.001 159.349 355.506 159.534 355.966 159.904C356.436 160.264 356.876 160.934 357.286 161.914C357.576 162.594 357.866 163.044 358.156 163.264C358.446 163.474 358.751 163.579 359.071 163.579C359.451 163.579 359.721 163.679 359.881 163.879C360.041 164.069 360.121 164.309 360.121 164.599C360.121 164.909 360.016 165.169 359.806 165.379C359.596 165.579 359.301 165.679 358.921 165.679C358.481 165.679 358.076 165.614 357.706 165.484C357.336 165.354 357.031 165.164 356.791 164.914C356.621 165.164 356.386 165.389 356.086 165.589C355.796 165.779 355.441 165.874 355.021 165.874C354.771 165.874 354.476 165.824 354.136 165.724C353.806 165.634 353.461 165.479 353.101 165.259C352.751 165.029 352.426 164.719 352.126 164.329C351.836 164.859 351.501 165.219 351.121 165.409C350.741 165.589 350.221 165.679 349.561 165.679ZM352.996 162.559C353.186 162.869 353.461 163.154 353.821 163.414C354.181 163.664 354.556 163.789 354.946 163.789C355.146 163.789 355.311 163.714 355.441 163.564C355.571 163.404 355.576 163.169 355.456 162.859C355.386 162.689 355.286 162.489 355.156 162.259C355.036 162.029 354.896 161.834 354.736 161.674C354.586 161.504 354.421 161.419 354.241 161.419C354.041 161.419 353.836 161.509 353.626 161.689C353.416 161.869 353.206 162.159 352.996 162.559ZM358.921 165.679L359.071 163.579C359.531 163.579 359.861 163.534 360.061 163.444C360.261 163.344 360.381 163.164 360.421 162.904C360.461 162.634 360.471 162.244 360.451 161.734L360.181 154.624H362.296L362.596 161.884C362.616 162.464 362.591 162.989 362.521 163.459C362.461 163.919 362.306 164.314 362.056 164.644C361.816 164.974 361.441 165.229 360.931 165.409C360.431 165.589 359.761 165.679 358.921 165.679ZM364.574 165.604L364.259 154.624H366.359L366.674 165.604H364.574ZM372.044 165.004L372.779 163.099C373.489 163.419 374.184 163.579 374.864 163.579C375.924 163.579 376.454 163.294 376.454 162.724C376.454 162.554 376.399 162.319 376.289 162.019C376.189 161.719 376.004 161.329 375.734 160.849C375.464 160.359 375.069 159.754 374.549 159.034L376.334 157.849C377.044 158.879 377.614 159.854 378.044 160.774C378.474 161.694 378.689 162.469 378.689 163.099C378.689 163.869 378.379 164.494 377.759 164.974C377.149 165.454 376.259 165.694 375.089 165.694C374.799 165.694 374.469 165.669 374.099 165.619C373.739 165.569 373.379 165.494 373.019 165.394C372.659 165.294 372.334 165.164 372.044 165.004ZM380.468 165.604L380.153 154.624H382.253L382.568 165.604H380.468ZM386.639 163.579C387.309 163.579 387.754 163.494 387.974 163.324C388.194 163.144 388.304 162.944 388.304 162.724C388.304 162.484 388.234 162.204 388.094 161.884C387.964 161.564 387.799 161.229 387.599 160.879C387.399 160.529 387.189 160.194 386.969 159.874C386.749 159.554 386.559 159.274 386.399 159.034L388.184 157.849C388.834 158.719 389.344 159.564 389.714 160.384C390.094 161.194 390.344 161.854 390.464 162.364C390.574 162.844 390.784 163.169 391.094 163.339C391.404 163.499 391.729 163.579 392.069 163.579C392.449 163.579 392.719 163.679 392.879 163.879C393.049 164.069 393.134 164.309 393.134 164.599C393.134 164.909 393.029 165.169 392.819 165.379C392.619 165.579 392.319 165.679 391.919 165.679C390.979 165.679 390.279 165.389 389.819 164.809C389.549 165.069 389.169 165.284 388.679 165.454C388.189 165.614 387.609 165.694 386.939 165.694C386.479 165.694 385.964 165.639 385.394 165.529C384.824 165.419 384.324 165.244 383.894 165.004L384.629 163.099C384.999 163.269 385.354 163.394 385.694 163.474C386.044 163.544 386.359 163.579 386.639 163.579ZM391.938 165.679L392.088 163.579C392.558 163.579 392.918 163.574 393.168 163.564C393.428 163.554 393.623 163.544 393.753 163.534C393.883 163.514 393.993 163.499 394.083 163.489C393.973 163.389 393.838 163.244 393.678 163.054C393.528 162.864 393.388 162.619 393.258 162.319C393.138 162.019 393.078 161.659 393.078 161.239C393.078 160.629 393.233 160.094 393.543 159.634C393.863 159.174 394.293 158.814 394.833 158.554C395.373 158.294 395.978 158.164 396.648 158.164C397.248 158.164 397.823 158.244 398.373 158.404L398.043 160.399C397.843 160.349 397.628 160.309 397.398 160.279C397.178 160.249 396.988 160.234 396.828 160.234C396.328 160.234 395.928 160.349 395.628 160.579C395.338 160.809 395.193 161.114 395.193 161.494C395.193 161.784 395.273 162.039 395.433 162.259C395.603 162.469 395.793 162.639 396.003 162.769C396.213 162.899 396.383 162.984 396.513 163.024C396.843 162.924 397.123 162.844 397.353 162.784C397.583 162.714 397.823 162.634 398.073 162.544C398.323 162.444 398.653 162.304 399.063 162.124L399.738 164.104C398.898 164.514 398.078 164.834 397.278 165.064C396.478 165.294 395.648 165.454 394.788 165.544C393.928 165.634 392.978 165.679 391.938 165.679ZM406.198 157.564C406.198 157.064 406.158 156.574 406.078 156.094C406.008 155.604 405.943 155.194 405.883 154.864L407.983 154.564C408.013 154.764 408.048 155.029 408.088 155.359C408.138 155.689 408.178 156.039 408.208 156.409C408.238 156.769 408.253 157.114 408.253 157.444C408.253 158.634 408.008 159.684 407.518 160.594C408.098 161.204 408.483 161.739 408.673 162.199C408.873 162.659 408.973 163.059 408.973 163.399C408.973 163.789 408.888 164.154 408.718 164.494C408.558 164.824 408.293 165.094 407.923 165.304C407.553 165.504 407.058 165.604 406.438 165.604H402.028V163.594C403.348 162.644 404.338 161.744 404.998 160.894C404.458 160.454 403.838 159.984 403.138 159.484C402.438 158.984 401.688 158.484 400.888 157.984L401.983 156.379C402.823 156.899 403.568 157.389 404.218 157.849C404.878 158.309 405.453 158.744 405.943 159.154C406.113 158.654 406.198 158.124 406.198 157.564ZM404.728 163.579H405.703C406.213 163.579 406.548 163.534 406.708 163.444C406.868 163.354 406.948 163.234 406.948 163.084C406.948 162.884 406.758 162.579 406.378 162.169C405.928 162.649 405.378 163.119 404.728 163.579ZM401.143 156.154L400.888 155.104C401.208 155.044 401.463 154.994 401.653 154.954C401.473 154.824 401.318 154.654 401.188 154.444C401.058 154.234 400.993 154.004 400.993 153.754C400.993 153.394 401.073 153.104 401.233 152.884C401.393 152.664 401.598 152.504 401.848 152.404C402.098 152.304 402.358 152.254 402.628 152.254C402.918 152.254 403.183 152.294 403.423 152.374L403.303 153.454C403.203 153.434 403.103 153.414 403.003 153.394C402.903 153.374 402.793 153.364 402.673 153.364C402.533 153.364 402.413 153.409 402.313 153.499C402.213 153.579 402.163 153.679 402.163 153.799C402.163 153.999 402.243 154.174 402.403 154.324C402.573 154.464 402.743 154.564 402.913 154.624C403.233 154.534 403.528 154.434 403.798 154.324L404.098 155.329C403.718 155.469 403.253 155.619 402.703 155.779C402.163 155.929 401.643 156.054 401.143 156.154ZM411.42 165.604L411.105 154.624H413.205L413.52 165.604H411.42ZM419.594 171.499C419.254 170.269 418.999 169.144 418.829 168.124C418.669 167.104 418.589 166.289 418.589 165.679C418.589 164.789 418.729 163.999 419.009 163.309C419.299 162.609 419.669 162.009 420.119 161.509C420.579 160.999 421.069 160.579 421.589 160.249C422.119 159.919 422.629 159.674 423.119 159.514C423.619 159.354 424.044 159.274 424.394 159.274C424.754 159.274 425.049 159.369 425.279 159.559C425.519 159.749 425.729 160.024 425.909 160.384C426.099 160.734 426.299 161.159 426.509 161.659C426.739 162.209 426.949 162.619 427.139 162.889C427.329 163.159 427.524 163.344 427.724 163.444C427.924 163.534 428.149 163.579 428.399 163.579C428.779 163.579 429.054 163.679 429.224 163.879C429.394 164.069 429.479 164.309 429.479 164.599C429.479 164.909 429.374 165.169 429.164 165.379C428.954 165.579 428.649 165.679 428.249 165.679C427.809 165.679 427.419 165.614 427.079 165.484C426.739 165.344 426.434 165.149 426.164 164.899C426.004 165.189 425.789 165.424 425.519 165.604C425.259 165.784 424.914 165.874 424.484 165.874C423.204 165.874 422.059 165.219 421.049 163.909C420.929 164.199 420.839 164.509 420.779 164.839C420.719 165.159 420.689 165.474 420.689 165.784C420.689 166.204 420.734 166.719 420.824 167.329C420.924 167.939 421.044 168.564 421.184 169.204C421.334 169.844 421.484 170.424 421.634 170.944L419.594 171.499ZM424.454 163.759C424.734 163.759 424.934 163.699 425.054 163.579C425.174 163.449 425.189 163.269 425.099 163.039C424.889 162.509 424.704 162.104 424.544 161.824C424.384 161.544 424.209 161.404 424.019 161.404C423.859 161.404 423.659 161.464 423.419 161.584C423.189 161.694 422.969 161.824 422.759 161.974C422.549 162.124 422.404 162.254 422.324 162.364C422.594 162.784 422.919 163.124 423.299 163.384C423.689 163.634 424.074 163.759 424.454 163.759ZM428.281 165.679L428.431 163.579H429.421C429.521 162.559 429.756 161.664 430.126 160.894C430.506 160.124 430.966 159.524 431.506 159.094C432.056 158.654 432.636 158.434 433.246 158.434C433.616 158.434 433.971 158.544 434.311 158.764C434.661 158.974 434.946 159.284 435.166 159.694C435.386 160.104 435.496 160.604 435.496 161.194C435.496 161.504 435.431 161.859 435.301 162.259C435.181 162.649 434.966 163.014 434.656 163.354C435.026 163.434 435.406 163.494 435.796 163.534C436.196 163.564 436.591 163.579 436.981 163.579C437.361 163.579 437.631 163.679 437.791 163.879C437.961 164.069 438.046 164.309 438.046 164.599C438.046 164.909 437.941 165.169 437.731 165.379C437.521 165.579 437.221 165.679 436.831 165.679C436.591 165.679 436.321 165.669 436.021 165.649C436.151 165.999 436.196 166.364 436.156 166.744C436.126 167.124 436.001 167.474 435.781 167.794C435.571 168.124 435.261 168.389 434.851 168.589C434.441 168.799 433.931 168.904 433.321 168.904C432.691 168.904 432.106 168.784 431.566 168.544C431.026 168.314 430.571 167.954 430.201 167.464C429.831 166.974 429.581 166.349 429.451 165.589C428.991 165.649 428.601 165.679 428.281 165.679ZM433.051 160.504C432.871 160.504 432.671 160.629 432.451 160.879C432.241 161.119 432.046 161.464 431.866 161.914C431.696 162.364 431.581 162.889 431.521 163.489C432.141 163.389 432.616 163.179 432.946 162.859C433.286 162.539 433.456 162.094 433.456 161.524C433.456 161.284 433.421 161.054 433.351 160.834C433.291 160.614 433.191 160.504 433.051 160.504ZM433.261 166.834C433.561 166.834 433.781 166.764 433.921 166.624C434.071 166.484 434.146 166.304 434.146 166.084C434.146 165.964 434.106 165.829 434.026 165.679C433.946 165.529 433.796 165.399 433.576 165.289C433.356 165.169 433.041 165.109 432.631 165.109C432.481 165.109 432.316 165.119 432.136 165.139C431.956 165.159 431.766 165.189 431.566 165.229C431.686 165.829 431.906 166.244 432.226 166.474C432.556 166.714 432.901 166.834 433.261 166.834ZM436.851 165.679L437.001 163.594C437.821 163.594 438.486 163.589 438.996 163.579C439.506 163.569 439.901 163.549 440.181 163.519C440.471 163.479 440.686 163.434 440.826 163.384C440.966 163.324 441.086 163.259 441.186 163.189C441.266 163.129 441.336 163.054 441.396 162.964C441.466 162.874 441.526 162.764 441.576 162.634C441.166 162.784 440.741 162.859 440.301 162.859C439.501 162.859 438.871 162.694 438.411 162.364C437.951 162.024 437.721 161.429 437.721 160.579C437.721 160.139 437.796 159.704 437.946 159.274C438.096 158.834 438.311 158.439 438.591 158.089C438.871 157.729 439.201 157.444 439.581 157.234C439.961 157.014 440.381 156.904 440.841 156.904C441.521 156.904 442.081 157.104 442.521 157.504C442.971 157.894 443.301 158.424 443.511 159.094C443.731 159.754 443.841 160.489 443.841 161.299C443.841 162.009 443.736 162.629 443.526 163.159C443.316 163.679 443.066 164.089 442.776 164.389C442.536 164.639 442.261 164.849 441.951 165.019C441.641 165.189 441.261 165.324 440.811 165.424C440.371 165.514 439.826 165.579 439.176 165.619C438.536 165.659 437.761 165.679 436.851 165.679ZM439.791 160.174C439.791 160.604 440.126 160.819 440.796 160.819C441.116 160.819 441.436 160.769 441.756 160.669C441.706 160.119 441.591 159.699 441.411 159.409C441.231 159.119 441.001 158.974 440.721 158.974C440.481 158.974 440.266 159.089 440.076 159.319C439.886 159.549 439.791 159.834 439.791 160.174ZM440.811 155.509C440.501 155.509 440.236 155.404 440.016 155.194C439.806 154.984 439.701 154.724 439.701 154.414C439.701 154.104 439.806 153.839 440.016 153.619C440.236 153.399 440.501 153.289 440.811 153.289C441.111 153.289 441.366 153.399 441.576 153.619C441.796 153.839 441.906 154.104 441.906 154.414C441.906 154.724 441.796 154.984 441.576 155.194C441.366 155.404 441.111 155.509 440.811 155.509ZM445.624 165.604L445.309 154.624H447.409L447.724 165.604H445.624ZM445.534 170.239L445.279 169.189C445.599 169.129 445.854 169.079 446.044 169.039C445.864 168.909 445.709 168.739 445.579 168.529C445.449 168.319 445.384 168.089 445.384 167.839C445.384 167.479 445.464 167.189 445.624 166.969C445.784 166.749 445.989 166.589 446.239 166.489C446.489 166.389 446.749 166.339 447.019 166.339C447.309 166.339 447.574 166.379 447.814 166.459L447.694 167.539C447.594 167.519 447.494 167.499 447.394 167.479C447.294 167.459 447.184 167.449 447.064 167.449C446.924 167.449 446.804 167.489 446.704 167.569C446.604 167.659 446.554 167.764 446.554 167.884C446.554 168.084 446.634 168.254 446.794 168.394C446.964 168.544 447.134 168.649 447.304 168.709C447.624 168.619 447.919 168.519 448.189 168.409L448.489 169.414C448.109 169.554 447.644 169.699 447.094 169.849C446.554 170.009 446.034 170.139 445.534 170.239Z" fill="#2B3377"/>
<path d="M190.179 195.082L194.095 203.016L202.851 204.288L196.515 210.464L198.011 219.185L190.179 215.068L182.348 219.185L183.843 210.464L177.508 204.288L186.264 203.016L190.179 195.082Z" fill="#FFCD1A"/>
<path d="M218.23 195.082L222.146 203.016L230.902 204.288L224.566 210.464L226.062 219.185L218.23 215.068L210.399 219.185L211.894 210.464L205.558 204.288L214.314 203.016L218.23 195.082Z" fill="#FFCD1A"/>
<path d="M246.28 195.082L250.196 203.016L258.952 204.288L252.616 210.464L254.112 219.185L246.28 215.068L238.448 219.185L239.944 210.464L233.608 204.288L242.364 203.016L246.28 195.082Z" fill="#FFCD1A"/>
<path d="M274.33 195.082L278.246 203.016L287.002 204.288L280.666 210.464L282.162 219.185L274.33 215.068L266.499 219.185L267.994 210.464L261.658 204.288L270.414 203.016L274.33 195.082Z" fill="#FFCD1A"/>
<path d="M302.381 195.082L306.297 203.016L315.053 204.288L308.717 210.464L310.213 219.185L302.381 215.068L294.549 219.185L296.045 210.464L289.709 204.288L298.465 203.016L302.381 195.082Z" fill="#FFCD1A"/>
<defs>
<filter id="filter0_d_154_2934" x="0.138306" y="0.823418" width="740.529" height="475.463" filterUnits="userSpaceOnUse" color-interpolation-filters="sRGB">
<feFlood flood-opacity="0" result="BackgroundImageFix"/>
<feColorMatrix in="SourceAlpha" type="matrix" values="0 0 0 0 0 0 0 0 0 0 0 0 0 0 0 0 0 0 127 0" result="hardAlpha"/>
<feOffset dy="89.761"/>
<feGaussianBlur stdDeviation="72.9308"/>
<feColorMatrix type="matrix" values="0 0 0 0 0 0 0 0 0 0 0 0 0 0 0 0 0 0 0.05 0"/>
<feBlend mode="normal" in2="BackgroundImageFix" result="effect1_dropShadow_154_2934"/>
<feBlend mode="normal" in="SourceGraphic" in2="effect1_dropShadow_154_2934" result="shape"/>
</filter>
</defs>
</svg>
