<svg width="680" height="112" viewBox="0 0 680 112" fill="none" xmlns="http://www.w3.org/2000/svg">
<g filter="url(#filter0_d_154_3687)">
<rect x="20" y="10" width="640" height="72" rx="20" fill="white"/>
</g>
<rect x="470" y="17" width="180" height="58" rx="20" fill="#686DF1"/>
<path d="M531.52 52.44C531.52 51.9867 531.58 51.4067 531.7 50.7C531.833 49.9933 532.12 49.1533 532.56 48.18L535.02 49.04C534.793 49.6667 534.62 50.2067 534.5 50.66C534.38 51.1 534.32 51.5333 534.32 51.96C534.32 52.8667 534.647 53.5867 535.3 54.12C535.953 54.6667 536.8 54.94 537.84 54.94C538.973 54.94 539.84 54.7533 540.44 54.38C541.053 54.02 541.467 53.4467 541.68 52.66C541.893 51.8733 541.98 50.84 541.94 49.56L541.54 38.36H544.36L544.66 47.82C544.673 48.5 544.76 49.02 544.92 49.38C545.093 49.7267 545.347 49.9667 545.68 50.1C546.027 50.2333 546.473 50.3 547.02 50.3C547.513 50.3 547.867 50.4333 548.08 50.7C548.307 50.9533 548.42 51.2733 548.42 51.66C548.42 52.0733 548.28 52.42 548 52.7C547.72 52.9667 547.327 53.1 546.82 53.1C546.473 53.1 546.093 53.0467 545.68 52.94C545.28 52.82 544.913 52.6333 544.58 52.38C544.273 54.2867 543.54 55.6333 542.38 56.42C541.22 57.22 539.68 57.62 537.76 57.62C536.627 57.62 535.587 57.4267 534.64 57.04C533.693 56.6667 532.933 56.1 532.36 55.34C531.8 54.58 531.52 53.6133 531.52 52.44ZM546.82 53.1L547.02 50.3C547.46 50.3 547.82 50.2667 548.1 50.2C548.38 50.12 548.607 49.9533 548.78 49.7C548.967 49.4333 549.127 49.04 549.26 48.52C549.407 47.9867 549.567 47.2667 549.74 46.36L552.34 46.84C552.287 47.1333 552.214 47.5 552.12 47.94C552.04 48.38 552 48.76 552 49.08C552 49.4533 552.12 49.7533 552.36 49.98C552.6 50.1933 553.054 50.3 553.72 50.3C554.054 50.3 554.34 50.2667 554.58 50.2C554.834 50.12 555.047 49.9533 555.22 49.7C555.407 49.4333 555.567 49.0267 555.7 48.48C555.847 47.92 555.987 47.1667 556.12 46.22L558.76 46.64C558.68 47.1067 558.6 47.6 558.52 48.12C558.44 48.64 558.4 49.0333 558.4 49.3C558.4 49.5533 558.52 49.7867 558.76 50C559.014 50.2 559.52 50.3 560.28 50.3C560.814 50.3 561.234 50.1933 561.54 49.98C561.86 49.7667 562.02 49.3933 562.02 48.86C562.02 48.3667 561.907 47.72 561.68 46.92C561.454 46.12 561.187 45.28 560.88 44.4L563.7 43.56C563.914 44.1333 564.1 44.7467 564.26 45.4C564.434 46.04 564.567 46.6667 564.66 47.28C564.767 47.8933 564.82 48.42 564.82 48.86C564.82 50.2333 564.414 51.2867 563.6 52.02C562.8 52.74 561.754 53.1 560.46 53.1C559.527 53.1 558.8 52.9933 558.28 52.78C557.76 52.5533 557.387 52.1533 557.16 51.58C556.894 52.0467 556.6 52.3867 556.28 52.6C555.974 52.8133 555.607 52.9467 555.18 53C554.754 53.0667 554.247 53.1 553.66 53.1C553.3 53.1 552.94 53.0667 552.58 53C552.22 52.9467 551.874 52.8267 551.54 52.64C551.22 52.44 550.94 52.1267 550.7 51.7C550.247 52.3133 549.694 52.7 549.04 52.86C548.387 53.02 547.647 53.1 546.82 53.1ZM566.144 57.6L565.124 55.04C566.831 54.44 568.071 53.7533 568.844 52.98C569.618 52.1933 570.004 51.36 570.004 50.48C570.004 49.92 569.884 49.32 569.644 48.68C569.404 48.04 569.091 47.3467 568.704 46.6L571.324 45.34C571.791 46.2333 572.151 47.0867 572.404 47.9C572.671 48.7133 572.804 49.4733 572.804 50.18C572.804 51.82 572.271 53.2667 571.204 54.52C570.138 55.7733 568.451 56.8 566.144 57.6ZM575.568 53L575.188 39.76H577.988L578.368 53H575.568ZM574.468 38.48L574.128 37.08C574.554 37 574.894 36.9333 575.148 36.88C574.908 36.7067 574.701 36.48 574.528 36.2C574.354 35.92 574.268 35.6133 574.268 35.28C574.268 34.8 574.374 34.4133 574.588 34.12C574.801 33.8267 575.074 33.6133 575.408 33.48C575.741 33.3467 576.088 33.28 576.448 33.28C576.834 33.28 577.188 33.3333 577.508 33.44L577.348 34.88C577.214 34.8533 577.081 34.8267 576.948 34.8C576.814 34.7733 576.668 34.76 576.508 34.76C576.321 34.76 576.161 34.82 576.028 34.94C575.894 35.0467 575.828 35.18 575.828 35.34C575.828 35.6067 575.934 35.84 576.148 36.04C576.374 36.2267 576.601 36.36 576.828 36.44C577.254 36.32 577.648 36.1867 578.008 36.04L578.408 37.38C577.901 37.5667 577.281 37.7667 576.548 37.98C575.828 38.18 575.134 38.3467 574.468 38.48Z" fill="white"/>
<path d="M116.092 53.02C116.092 52.7 116.119 52.36 116.172 52C116.239 51.6267 116.332 51.2333 116.452 50.82C116.586 50.3933 116.746 49.9467 116.932 49.48L118.372 50.04C118.239 50.4133 118.119 50.7667 118.012 51.1C117.919 51.4333 117.846 51.7467 117.792 52.04C117.752 52.3333 117.732 52.6133 117.732 52.88C117.732 53.56 117.912 54.1333 118.272 54.6C118.632 55.0667 119.099 55.4133 119.672 55.64C120.259 55.88 120.886 56 121.552 56C122.859 56 123.879 55.7667 124.612 55.3C125.346 54.8467 125.859 54.24 126.152 53.48C126.446 52.7333 126.572 51.9133 126.532 51.02L126.092 38.72H127.752L128.072 48.86C128.099 49.54 128.206 50.0733 128.392 50.46C128.592 50.8333 128.859 51.0933 129.192 51.24C129.526 51.3867 129.892 51.46 130.292 51.46C130.572 51.46 130.772 51.54 130.892 51.7C131.026 51.8467 131.092 52.0267 131.092 52.24C131.092 52.4533 130.999 52.6533 130.812 52.84C130.626 53.0133 130.386 53.1 130.092 53.1C129.679 53.1 129.326 53.0467 129.032 52.94C128.739 52.82 128.499 52.6733 128.312 52.5C128.126 52.3133 127.979 52.1067 127.872 51.88C127.766 51.64 127.686 51.4 127.632 51.16L128.192 51.72C128.139 52.4267 127.986 53.1267 127.732 53.82C127.492 54.5267 127.119 55.1667 126.612 55.74C126.106 56.3133 125.426 56.7733 124.572 57.12C123.732 57.4667 122.692 57.64 121.452 57.64C120.759 57.64 120.086 57.5333 119.432 57.32C118.792 57.12 118.219 56.82 117.712 56.42C117.219 56.02 116.826 55.5333 116.532 54.96C116.239 54.4 116.092 53.7533 116.092 53.02ZM130.502 53.1L130.702 51.46C131.368 51.46 131.888 51.4133 132.262 51.32C132.635 51.2133 132.915 51.02 133.102 50.74C133.302 50.4467 133.462 50.0267 133.582 49.48C133.702 48.9333 133.848 48.22 134.022 47.34L135.582 47.64C135.528 47.88 135.468 48.1467 135.402 48.44C135.335 48.7333 135.275 49.0267 135.222 49.32C135.182 49.6 135.162 49.8467 135.162 50.06C135.162 50.26 135.175 50.4467 135.202 50.62C135.228 50.7933 135.328 50.94 135.502 51.06C135.675 51.18 135.968 51.28 136.382 51.36C136.795 51.4267 137.388 51.46 138.162 51.46C138.442 51.46 138.642 51.54 138.762 51.7C138.895 51.8467 138.962 52.0267 138.962 52.24C138.962 52.4533 138.868 52.6533 138.682 52.84C138.495 53.0133 138.255 53.1 137.962 53.1C137.148 53.1 136.502 53.06 136.022 52.98C135.542 52.8867 135.175 52.7533 134.922 52.58C134.682 52.4067 134.508 52.1933 134.402 51.94C134.308 51.6733 134.235 51.3667 134.182 51.02L134.782 51.06C134.568 51.4867 134.335 51.8333 134.082 52.1C133.842 52.3667 133.562 52.5733 133.242 52.72C132.922 52.8667 132.535 52.9667 132.082 53.02C131.642 53.0733 131.115 53.1 130.502 53.1ZM135.542 56.88C135.262 56.88 135.022 56.78 134.822 56.58C134.635 56.3933 134.542 56.1667 134.542 55.9C134.542 55.6333 134.635 55.4 134.822 55.2C135.022 55 135.262 54.9 135.542 54.9C135.808 54.9 136.035 55 136.222 55.2C136.422 55.4 136.522 55.6333 136.522 55.9C136.522 56.1667 136.422 56.3933 136.222 56.58C136.035 56.78 135.808 56.88 135.542 56.88ZM132.802 56.88C132.522 56.88 132.282 56.78 132.082 56.58C131.895 56.3933 131.802 56.1667 131.802 55.9C131.802 55.6333 131.895 55.4 132.082 55.2C132.282 55 132.522 54.9 132.802 54.9C133.068 54.9 133.295 55 133.482 55.2C133.682 55.4 133.782 55.6333 133.782 55.9C133.782 56.1667 133.682 56.3933 133.482 56.58C133.295 56.78 133.068 56.88 132.802 56.88ZM138.362 53.1L138.562 51.46C138.936 51.46 139.229 51.38 139.442 51.22C139.669 51.06 139.882 50.7933 140.082 50.42C140.296 50.0467 140.562 49.5467 140.882 48.92C141.202 48.28 141.522 47.76 141.842 47.36C142.176 46.9467 142.496 46.6267 142.802 46.4C143.122 46.16 143.422 45.9933 143.702 45.9C143.982 45.8067 144.242 45.76 144.482 45.76C144.922 45.76 145.316 45.86 145.662 46.06C146.009 46.2467 146.336 46.5733 146.642 47.04C146.949 47.4933 147.262 48.12 147.582 48.92C147.889 49.6533 148.162 50.2067 148.402 50.58C148.656 50.94 148.916 51.18 149.182 51.3C149.462 51.4067 149.776 51.46 150.122 51.46C150.402 51.46 150.602 51.54 150.722 51.7C150.856 51.8467 150.922 52.0267 150.922 52.24C150.922 52.4533 150.829 52.6533 150.642 52.84C150.456 53.0133 150.216 53.1 149.922 53.1C149.402 53.1 148.922 53.0133 148.483 52.84C148.056 52.6667 147.696 52.3933 147.402 52.02L147.682 51.6C147.536 52.0133 147.336 52.3533 147.082 52.62C146.842 52.8733 146.569 53.06 146.262 53.18C145.956 53.3133 145.629 53.38 145.282 53.38C144.842 53.38 144.389 53.2867 143.922 53.1C143.469 52.9133 143.029 52.6467 142.602 52.3C142.176 51.9533 141.802 51.5467 141.482 51.08C141.136 51.6933 140.802 52.1467 140.482 52.44C140.176 52.72 139.856 52.9 139.522 52.98C139.189 53.06 138.802 53.1 138.362 53.1ZM142.242 49.56C142.469 49.9333 142.709 50.26 142.962 50.54C143.229 50.82 143.496 51.0533 143.762 51.24C144.029 51.4133 144.289 51.5467 144.542 51.64C144.809 51.72 145.049 51.76 145.262 51.76C145.729 51.76 146.069 51.5933 146.282 51.26C146.509 50.9267 146.502 50.46 146.262 49.86C146.142 49.5533 146.016 49.2533 145.882 48.96C145.762 48.6667 145.629 48.4 145.482 48.16C145.336 47.9067 145.169 47.7133 144.982 47.58C144.796 47.4333 144.589 47.36 144.362 47.36C144.162 47.36 143.949 47.4267 143.722 47.56C143.509 47.6933 143.276 47.92 143.022 48.24C142.782 48.56 142.522 49 142.242 49.56ZM150.325 53.1L150.525 51.46C151.312 51.46 151.925 51.4333 152.365 51.38C152.805 51.3133 153.118 51.16 153.305 50.92C153.492 50.6667 153.585 50.2733 153.585 49.74C153.585 49.4067 153.532 49.0133 153.425 48.56C153.318 48.0933 153.178 47.6 153.005 47.08C152.832 46.56 152.645 46.0467 152.445 45.54L154.065 44.94C154.238 45.3667 154.398 45.8533 154.545 46.4C154.705 46.9467 154.838 47.4867 154.945 48.02C155.052 48.5533 155.105 49.02 155.105 49.42C155.105 50.0867 155.012 50.6533 154.825 51.12C154.652 51.5867 154.372 51.9667 153.985 52.26C153.598 52.5533 153.098 52.7667 152.485 52.9C151.885 53.0333 151.165 53.1 150.325 53.1ZM154.025 56.88C153.745 56.88 153.505 56.78 153.305 56.58C153.118 56.3933 153.025 56.1667 153.025 55.9C153.025 55.6333 153.118 55.4 153.305 55.2C153.505 55 153.745 54.9 154.025 54.9C154.292 54.9 154.518 55 154.705 55.2C154.905 55.4 155.005 55.6333 155.005 55.9C155.005 56.1667 154.905 56.3933 154.705 56.58C154.518 56.78 154.292 56.88 154.025 56.88ZM151.285 56.88C151.005 56.88 150.765 56.78 150.565 56.58C150.378 56.3933 150.285 56.1667 150.285 55.9C150.285 55.6333 150.378 55.4 150.565 55.2C150.765 55 151.005 54.9 151.285 54.9C151.552 54.9 151.778 55 151.965 55.2C152.165 55.4 152.265 55.6333 152.265 55.9C152.265 56.1667 152.165 56.3933 151.965 56.58C151.778 56.78 151.552 56.88 151.285 56.88ZM164.562 42.28C164.562 41.9867 164.542 41.6333 164.502 41.22C164.462 40.8067 164.415 40.3933 164.362 39.98C164.308 39.5667 164.255 39.2133 164.202 38.92L165.922 38.72C165.962 38.9867 166.002 39.34 166.042 39.78C166.095 40.2067 166.135 40.6333 166.162 41.06C166.188 41.4867 166.202 41.84 166.202 42.12C166.202 42.76 166.155 43.3867 166.062 44C165.982 44.6 165.848 45.1933 165.662 45.78C165.475 46.3533 165.228 46.9133 164.922 47.46L164.682 47.9C164.308 48.5267 163.848 49.1333 163.302 49.72C162.755 50.2933 162.115 50.84 161.382 51.36H163.902C164.355 51.36 164.702 51.3067 164.942 51.2C165.182 51.08 165.342 50.9267 165.422 50.74C165.515 50.5533 165.562 50.3533 165.562 50.14C165.562 49.78 165.342 49.3333 164.902 48.8C164.475 48.2533 163.882 47.6533 163.122 47C162.362 46.3333 161.502 45.6333 160.542 44.9C159.582 44.1667 158.568 43.42 157.502 42.66L158.442 41.34C159.668 42.2467 160.748 43.0667 161.682 43.8C162.628 44.5333 163.435 45.2067 164.102 45.82C164.782 46.42 165.335 46.98 165.762 47.5C166.202 48.0067 166.522 48.4933 166.722 48.96C166.935 49.4133 167.042 49.86 167.042 50.3C167.042 50.5933 166.988 50.9 166.882 51.22C166.788 51.5267 166.615 51.82 166.362 52.1C166.122 52.3667 165.775 52.5867 165.322 52.76C164.882 52.92 164.308 53 163.602 53H159.002V51.38C160.375 50.3933 161.462 49.4333 162.262 48.5C163.075 47.5667 163.662 46.5933 164.022 45.58C164.382 44.5667 164.562 43.4667 164.562 42.28ZM158.642 59.06L158.402 57.98C158.748 57.9 159.028 57.8333 159.242 57.78C159.455 57.7267 159.695 57.6667 159.962 57.6L159.862 58.02C159.515 57.9133 159.182 57.6867 158.862 57.34C158.555 56.9933 158.402 56.6 158.402 56.16C158.402 55.76 158.495 55.42 158.682 55.14C158.882 54.8733 159.135 54.6733 159.442 54.54C159.762 54.4067 160.102 54.34 160.462 54.34C160.608 54.34 160.762 54.3533 160.922 54.38C161.095 54.4067 161.255 54.4467 161.402 54.5L161.242 55.5C161.108 55.4733 160.982 55.4467 160.862 55.42C160.742 55.3933 160.608 55.38 160.462 55.38C160.155 55.38 159.915 55.44 159.742 55.56C159.568 55.6933 159.482 55.8733 159.482 56.1C159.482 56.38 159.568 56.62 159.742 56.82C159.928 57.02 160.135 57.1733 160.362 57.28C160.602 57.4 160.795 57.46 160.942 57.46L160.122 57.54C160.482 57.4467 160.815 57.3467 161.122 57.24C161.442 57.1467 161.728 57.0533 161.982 56.96L162.302 57.98C161.982 58.1 161.602 58.2267 161.162 58.36C160.735 58.4933 160.302 58.62 159.862 58.74C159.422 58.86 159.015 58.9667 158.642 59.06ZM170.582 53L170.182 38.72H171.802L172.202 53H170.582Z" fill="#9092B0"/>
<g clip-path="url(#clip0_154_3687)">
<path d="M62.9092 46.1227L71.0002 51.2377V40.7917L62.9092 46.1227Z" fill="#9092B0"/>
<path d="M47 40.7917V51.2377L55.091 46.1227L47 40.7917Z" fill="#9092B0"/>
<path d="M69.4999 37.75H48.4999C47.7514 37.75 47.1574 38.308 47.0449 39.0265L58.9999 46.903L70.9549 39.0265C70.8424 38.308 70.2484 37.75 69.4999 37.75Z" fill="#9092B0"/>
<path d="M61.5349 47.0288L59.4124 48.4268C59.2864 48.5093 59.1439 48.5498 58.9999 48.5498C58.8559 48.5498 58.7134 48.5093 58.5874 48.4268L56.4649 47.0273L47.0479 52.9838C47.1634 53.6963 47.7544 54.2498 48.4999 54.2498H69.4999C70.2454 54.2498 70.8364 53.6963 70.9519 52.9838L61.5349 47.0288Z" fill="#9092B0"/>
</g>
<g clip-path="url(#clip1_154_3687)">
<path d="M509.241 36.8065L493.819 44.3322C493.169 44.6492 492.761 45.2953 492.754 46.0182C492.747 46.7411 493.142 47.3951 493.785 47.7249L498.866 50.33L503.439 45.153C503.649 44.9148 504.013 44.8922 504.251 45.1026C504.489 45.313 504.512 45.6768 504.301 45.915L499.729 51.0921L502.941 55.8118C503.348 56.4095 504.046 56.7209 504.762 56.6244C505.48 56.5278 506.07 56.0421 506.304 55.3594L511.867 39.1263C512.121 38.3872 511.914 37.6068 511.329 37.0895C510.743 36.5723 509.943 36.4638 509.241 36.8065Z" fill="white"/>
</g>
<defs>
<filter id="filter0_d_154_3687" x="0" y="0" width="680" height="112" filterUnits="userSpaceOnUse" color-interpolation-filters="sRGB">
<feFlood flood-opacity="0" result="BackgroundImageFix"/>
<feColorMatrix in="SourceAlpha" type="matrix" values="0 0 0 0 0 0 0 0 0 0 0 0 0 0 0 0 0 0 127 0" result="hardAlpha"/>
<feOffset dy="10"/>
<feGaussianBlur stdDeviation="10"/>
<feColorMatrix type="matrix" values="0 0 0 0 0.21266 0 0 0 0 0.228796 0 0 0 0 0.470833 0 0 0 0.1 0"/>
<feBlend mode="normal" in2="BackgroundImageFix" result="effect1_dropShadow_154_3687"/>
<feBlend mode="normal" in="SourceGraphic" in2="effect1_dropShadow_154_3687" result="shape"/>
</filter>
<clipPath id="clip0_154_3687">
<rect width="24" height="24" fill="white" transform="translate(47 34)"/>
</clipPath>
<clipPath id="clip1_154_3687">
<rect width="19.6445" height="19.6445" fill="white" transform="translate(490.962 45.3105) rotate(-48.5475)"/>
</clipPath>
</defs>
</svg>
