<svg width="1947" height="1232" viewBox="0 0 1947 1232" fill="none" xmlns="http://www.w3.org/2000/svg">
<rect x="3" y="124" width="1920" height="1028" fill="#4B4AEF"/>
<path d="M1334.07 841.651C1547.58 769.461 1812.67 796.866 1918.52 819.593C1921.9 926.54 1926.63 1142.04 1918.52 1148.46C1910.42 1154.87 638.129 1151.13 3 1148.46V1044.18C138.134 980.014 266.511 925.872 661.778 953.946C963.694 975.389 1067.18 931.888 1334.07 841.651Z" fill="white" fill-opacity="0.04"/>
<path d="M1347.33 1019.7C1565.12 973.085 1827.93 1004.67 1932.11 1026.29C1928.54 1108.18 1940.67 1150.42 1932.16 1155C1923.65 1159.58 639.395 1182.16 5.63735 1154.62C7.06887 1137.76 3.64536 1144.4 5.62347 1121.1C144.667 1077.47 276.316 1041.24 669.015 1078.56C968.97 1107.07 1075.08 1077.97 1347.33 1019.7Z" fill="white" fill-opacity="0.04"/>
<path d="M1368.8 438.628C1730.77 427.022 1804.37 572.672 1921.54 539.033C1926.82 378.237 1930.4 139.19 1921.54 129.5C1912.68 119.81 712.142 128.679 11.0535 129.5C10.7339 162.668 11.4953 172.837 11.0536 218.669C159.283 315.837 41.0351 341.301 579.289 336.465C959.544 333.048 963.633 451.62 1368.8 438.628Z" fill="white" fill-opacity="0.04"/>
<path d="M1365.56 299.112C1723.72 261.768 1807.13 395.125 1920.93 353.231C1914.66 192.471 1930.33 138.771 1920.85 129.737C1911.37 120.702 698.512 78.2762 3.26013 129.003C5.31502 162.108 0.437386 130.623 3.27687 176.368C157.234 262.736 41.7812 296.553 575.253 253.413C952.13 222.936 964.666 340.913 1365.56 299.112Z" fill="white" fill-opacity="0.04"/>
</svg>
