<svg width="1350" height="1080" viewBox="0 0 1350 1080" fill="none" xmlns="http://www.w3.org/2000/svg">
<path d="M1354.5 977L238.23 977L-0.000488281 0L1354.5 0L1354.5 977Z" fill="#4B4AEF"/>
<path d="M1101.69 676.651C1243.92 604.461 1420.5 631.866 1491.02 654.593C1493.27 761.54 1496.42 977.04 1491.02 983.457C1485.62 989.874 638.088 986.131 214.999 983.457V879.183C305.018 815.014 390.536 760.872 653.842 788.946C854.962 810.389 923.898 766.888 1101.69 676.651Z" fill="white" fill-opacity="0.04"/>
<path d="M977.091 820.576C1119.42 773.08 1290.61 803.571 1358.42 824.754C1355.57 906.628 1348.49 1071.53 1342.91 1076.14C1337.33 1080.75 509.667 1032.09 96.5334 1007.19L101.451 927.477C192.406 883.291 278.49 846.526 534.355 882.214C729.792 909.474 799.178 879.947 977.091 820.576Z" fill="white" fill-opacity="0.04"/>
<path d="M988.949 185.628C1252.01 174.022 1305.5 319.672 1390.65 286.033C1394.49 125.237 1442.2 -191.064 1435.76 -200.754C1429.33 -210.444 512.827 -191.944 3.31694 -191.124L2.21875 -34.3315C109.943 62.837 24.0076 88.3011 415.179 83.4649C691.526 80.0482 694.498 198.62 988.949 185.628Z" fill="white" fill-opacity="0.04"/>
<path d="M1169.53 122.628C1432.59 111.022 1486.08 256.672 1571.23 223.033C1575.07 62.2372 1622.78 -254.064 1616.35 -263.754C1609.91 -273.444 693.411 -254.944 183.901 -254.124L182.803 -97.3315C290.528 -0.163015 204.592 25.3011 595.763 20.4649C872.11 17.0482 875.083 135.62 1169.53 122.628Z" fill="white" fill-opacity="0.04"/>
</svg>
