<svg width="45" height="44" viewBox="0 0 45 44" fill="none" xmlns="http://www.w3.org/2000/svg">
<path d="M22.5625 30.9375C26.3595 30.9375 29.4375 27.8595 29.4375 24.0625C29.4375 20.2655 26.3595 17.1875 22.5625 17.1875C18.7655 17.1875 15.6875 20.2655 15.6875 24.0625C15.6875 27.8595 18.7655 30.9375 22.5625 30.9375Z" stroke="white" stroke-width="3" stroke-linecap="round" stroke-linejoin="round"/>
<path d="M34.25 19.9375C35.8514 19.9348 37.4313 20.3064 38.8637 21.0226C40.2961 21.7388 41.5413 22.7798 42.5 24.0625" stroke="white" stroke-width="3" stroke-linecap="round" stroke-linejoin="round"/>
<path d="M2.625 24.0625C3.58372 22.7798 4.82892 21.7388 6.26129 21.0226C7.69366 20.3064 9.27356 19.9348 10.875 19.9375" stroke="white" stroke-width="3" stroke-linecap="round" stroke-linejoin="round"/>
<path d="M12.6626 37.125C13.5681 35.2706 14.9762 33.7078 16.7265 32.6147C18.4768 31.5215 20.499 30.9419 22.5626 30.9419C24.6262 30.9419 26.6484 31.5215 28.3987 32.6147C30.149 33.7078 31.5571 35.2706 32.4626 37.125" stroke="white" stroke-width="3" stroke-linecap="round" stroke-linejoin="round"/>
<path d="M10.8752 19.9375C9.83132 19.9386 8.80867 19.6425 7.92678 19.084C7.04488 18.5254 6.34015 17.7274 5.89494 16.7832C5.44972 15.839 5.2824 14.7876 5.41253 13.7519C5.54267 12.7161 5.96487 11.7388 6.62982 10.9341C7.29477 10.1294 8.17499 9.5305 9.16765 9.20747C10.1603 8.88443 11.2244 8.85056 12.2356 9.10982C13.2468 9.36908 14.1633 9.91076 14.8781 10.6716C15.5929 11.4324 16.0764 12.3809 16.2721 13.4062" stroke="white" stroke-width="3" stroke-linecap="round" stroke-linejoin="round"/>
<path d="M28.853 13.4062C29.0488 12.3809 29.5323 11.4324 30.247 10.6716C30.9618 9.91076 31.8783 9.36908 32.8895 9.10982C33.9007 8.85056 34.9648 8.88443 35.9575 9.20747C36.9501 9.5305 37.8303 10.1294 38.4953 10.9341C39.1602 11.7388 39.5824 12.7161 39.7126 13.7519C39.8427 14.7876 39.6754 15.839 39.2302 16.7832C38.785 17.7274 38.0802 18.5254 37.1983 19.084C36.3164 19.6425 35.2938 19.9386 34.2499 19.9375" stroke="white" stroke-width="3" stroke-linecap="round" stroke-linejoin="round"/>
</svg>
