<svg width="45" height="44" viewBox="0 0 45 44" fill="none" xmlns="http://www.w3.org/2000/svg">
<path d="M15.1875 27.5C20.1235 27.5 24.125 23.4985 24.125 18.5625C24.125 13.6265 20.1235 9.625 15.1875 9.625C10.2515 9.625 6.25 13.6265 6.25 18.5625C6.25 23.4985 10.2515 27.5 15.1875 27.5Z" stroke="white" stroke-width="3" stroke-miterlimit="10"/>
<path d="M26.772 9.95156C27.562 9.73728 28.3768 9.62749 29.1954 9.625C31.5658 9.625 33.8391 10.5666 35.5152 12.2427C37.1913 13.9188 38.1329 16.1921 38.1329 18.5625C38.1329 20.9329 37.1913 23.2062 35.5152 24.8823C33.8391 26.5584 31.5658 27.5 29.1954 27.5" stroke="white" stroke-width="3" stroke-linecap="round" stroke-linejoin="round"/>
<path d="M2.8125 33.928C4.20803 31.9421 6.061 30.3213 8.21489 29.2023C10.3688 28.0834 12.7603 27.4993 15.1875 27.4993C17.6147 27.4993 20.0062 28.0834 22.1601 29.2023C24.314 30.3213 26.167 31.9421 27.5625 33.928" stroke="white" stroke-width="3" stroke-linecap="round" stroke-linejoin="round"/>
<path d="M29.1953 27.5C31.6227 27.4985 34.0147 28.0819 36.1688 29.2009C38.323 30.3198 40.1757 31.9413 41.5703 33.9281" stroke="white" stroke-width="3" stroke-linecap="round" stroke-linejoin="round"/>
</svg>
