<svg width="45" height="44" viewBox="0 0 45 44" fill="none" xmlns="http://www.w3.org/2000/svg">
<path d="M4.9375 10.3125H26.9375C28.3962 10.3125 29.7951 10.892 30.8266 11.9234C31.858 12.9549 32.4375 14.3538 32.4375 15.8125V32.3125C32.4375 32.6772 32.2926 33.0269 32.0348 33.2848C31.7769 33.5426 31.4272 33.6875 31.0625 33.6875H9.0625C7.60381 33.6875 6.20486 33.108 5.17341 32.0766C4.14196 31.0451 3.5625 29.6462 3.5625 28.1875V11.6875C3.5625 11.3228 3.70737 10.9731 3.96523 10.7152C4.22309 10.4574 4.57283 10.3125 4.9375 10.3125V10.3125Z" stroke="white" stroke-width="3" stroke-linecap="round" stroke-linejoin="round"/>
<path d="M32.4375 19.25L42.0625 13.75V30.25L32.4375 24.75" stroke="white" stroke-width="3" stroke-linecap="round" stroke-linejoin="round"/>
</svg>
